<svg width="27" height="32" viewBox="0 0 27 32" fill="none" xmlns="http://www.w3.org/2000/svg">
<path fill-rule="evenodd" clip-rule="evenodd" d="M2.25 0C1.95163 0 1.66548 0.12967 1.4545 0.360484C1.24353 0.591298 1.125 0.904349 1.125 1.23077C1.125 1.55719 1.24353 1.87024 1.4545 2.10105C1.66548 2.33187 1.95163 2.46154 2.25 2.46154V29.5385H1.125C0.826631 29.5385 0.540483 29.6681 0.329505 29.8989C0.118526 30.1298 0 30.4428 0 30.7692C0 31.0957 0.118526 31.4087 0.329505 31.6395C0.540483 31.8703 0.826631 32 1.125 32H25.875C26.1734 32 26.4595 31.8703 26.6705 31.6395C26.8815 31.4087 27 31.0957 27 30.7692C27 30.4428 26.8815 30.1298 26.6705 29.8989C26.4595 29.6681 26.1734 29.5385 25.875 29.5385H24.75V2.46154C25.0484 2.46154 25.3345 2.33187 25.5455 2.10105C25.7565 1.87024 25.875 1.55719 25.875 1.23077C25.875 0.904349 25.7565 0.591298 25.5455 0.360484C25.3345 0.12967 25.0484 0 24.75 0H2.25ZM9 6.15385C8.70163 6.15385 8.41548 6.28352 8.20451 6.51433C7.99353 6.74514 7.875 7.0582 7.875 7.38462C7.875 7.71104 7.99353 8.02409 8.20451 8.2549C8.41548 8.48571 8.70163 8.61539 9 8.61539H11.25C11.5484 8.61539 11.8345 8.48571 12.0455 8.2549C12.2565 8.02409 12.375 7.71104 12.375 7.38462C12.375 7.0582 12.2565 6.74514 12.0455 6.51433C11.8345 6.28352 11.5484 6.15385 11.25 6.15385H9ZM7.875 12.3077C7.875 11.9813 7.99353 11.6682 8.20451 11.4374C8.41548 11.2066 8.70163 11.0769 9 11.0769H11.25C11.5484 11.0769 11.8345 11.2066 12.0455 11.4374C12.2565 11.6682 12.375 11.9813 12.375 12.3077C12.375 12.6341 12.2565 12.9472 12.0455 13.178C11.8345 13.4088 11.5484 13.5385 11.25 13.5385H9C8.70163 13.5385 8.41548 13.4088 8.20451 13.178C7.99353 12.9472 7.875 12.6341 7.875 12.3077ZM9 16C8.70163 16 8.41548 16.1297 8.20451 16.3605C7.99353 16.5913 7.875 16.9044 7.875 17.2308C7.875 17.5572 7.99353 17.8702 8.20451 18.1011C8.41548 18.3319 8.70163 18.4615 9 18.4615H11.25C11.5484 18.4615 11.8345 18.3319 12.0455 18.1011C12.2565 17.8702 12.375 17.5572 12.375 17.2308C12.375 16.9044 12.2565 16.5913 12.0455 16.3605C11.8345 16.1297 11.5484 16 11.25 16H9ZM14.625 7.38462C14.625 7.0582 14.7435 6.74514 14.9545 6.51433C15.1655 6.28352 15.4516 6.15385 15.75 6.15385H18C18.2984 6.15385 18.5845 6.28352 18.7955 6.51433C19.0065 6.74514 19.125 7.0582 19.125 7.38462C19.125 7.71104 19.0065 8.02409 18.7955 8.2549C18.5845 8.48571 18.2984 8.61539 18 8.61539H15.75C15.4516 8.61539 15.1655 8.48571 14.9545 8.2549C14.7435 8.02409 14.625 7.71104 14.625 7.38462ZM15.75 11.0769C15.4516 11.0769 15.1655 11.2066 14.9545 11.4374C14.7435 11.6682 14.625 11.9813 14.625 12.3077C14.625 12.6341 14.7435 12.9472 14.9545 13.178C15.1655 13.4088 15.4516 13.5385 15.75 13.5385H18C18.2984 13.5385 18.5845 13.4088 18.7955 13.178C19.0065 12.9472 19.125 12.6341 19.125 12.3077C19.125 11.9813 19.0065 11.6682 18.7955 11.4374C18.5845 11.2066 18.2984 11.0769 18 11.0769H15.75ZM14.625 17.2308C14.625 16.9044 14.7435 16.5913 14.9545 16.3605C15.1655 16.1297 15.4516 16 15.75 16H18C18.2984 16 18.5845 16.1297 18.7955 16.3605C19.0065 16.5913 19.125 16.9044 19.125 17.2308C19.125 17.5572 19.0065 17.8702 18.7955 18.1011C18.5845 18.3319 18.2984 18.4615 18 18.4615H15.75C15.4516 18.4615 15.1655 18.3319 14.9545 18.1011C14.7435 17.8702 14.625 17.5572 14.625 17.2308ZM9 28.3077V24.6154C9 24.289 9.11853 23.9759 9.32951 23.7451C9.54048 23.5143 9.82663 23.3846 10.125 23.3846H16.875C17.1734 23.3846 17.4595 23.5143 17.6705 23.7451C17.8815 23.9759 18 24.289 18 24.6154V28.3077C18 28.6341 17.8815 28.9472 17.6705 29.178C17.4595 29.4088 17.1734 29.5385 16.875 29.5385H10.125C9.82663 29.5385 9.54048 29.4088 9.32951 29.178C9.11853 28.9472 9 28.6341 9 28.3077Z" fill="#263238"/>
</svg>
