<svg width="26" height="25" viewBox="0 0 26 25" fill="none" xmlns="http://www.w3.org/2000/svg">
<path d="M12.88 0C5.9675 0 0.380005 5.5875 0.380005 12.5C0.380005 19.4125 5.9675 25 12.88 25C19.7925 25 25.38 19.4125 25.38 12.5C25.38 5.5875 19.7925 0 12.88 0ZM12.88 22.5C7.36751 22.5 2.88 18.0125 2.88 12.5C2.88 6.9875 7.36751 2.5 12.88 2.5C18.3925 2.5 22.88 6.9875 22.88 12.5C22.88 18.0125 18.3925 22.5 12.88 22.5ZM17.3675 6.25L12.88 10.7375L8.3925 6.25L6.63 8.0125L11.1175 12.5L6.63 16.9875L8.3925 18.75L12.88 14.2625L17.3675 18.75L19.13 16.9875L14.6425 12.5L19.13 8.0125L17.3675 6.25Z" fill="black" fill-opacity="0.7"/>
</svg>
