<svg width="25" height="23" viewBox="0 0 25 23" fill="none" xmlns="http://www.w3.org/2000/svg">
<path d="M12.8175 5.87499V10.9691L17.0503 13.5086C17.2635 13.6366 17.4171 13.8441 17.4773 14.0854C17.5375 14.3268 17.4994 14.5821 17.3714 14.7953C17.2433 15.0085 17.0358 15.1621 16.7945 15.2223C16.5532 15.2826 16.2978 15.2444 16.0846 15.1164L11.3971 12.3039C11.2584 12.2205 11.1436 12.1027 11.0639 11.9618C10.9843 11.8209 10.9424 11.6618 10.9424 11.5V5.87499C10.9424 5.62635 11.0412 5.3879 11.217 5.21208C11.3929 5.03627 11.6313 4.93749 11.88 4.93749C12.1286 4.93749 12.367 5.03627 12.5429 5.21208C12.7187 5.3879 12.8175 5.62635 12.8175 5.87499ZM23.4885 3.13398C23.3173 3.06292 23.1287 3.04425 22.9469 3.08034C22.765 3.11642 22.5979 3.20564 22.4667 3.33671L21.0206 4.78632C20.6421 4.37499 20.2518 3.96601 19.837 3.54531C18.2735 1.98168 16.284 0.913461 14.1169 0.474121C11.9498 0.0347804 9.70125 0.243803 7.65228 1.07507C5.6033 1.90634 3.84472 3.32299 2.59628 5.14801C1.34784 6.97303 0.664891 9.12549 0.632779 11.3364C0.600666 13.5474 1.22081 15.7188 2.41572 17.5793C3.61064 19.4398 5.32733 20.9069 7.3513 21.7973C9.37527 22.6878 11.6168 22.962 13.7957 22.5858C15.9746 22.2096 17.9944 21.1996 19.6026 19.682C19.6922 19.5974 19.7642 19.4959 19.8145 19.3835C19.8649 19.271 19.8926 19.1497 19.8961 19.0265C19.8996 18.9033 19.8788 18.7807 19.8348 18.6655C19.7909 18.5504 19.7247 18.445 19.6401 18.3555C19.5555 18.2659 19.454 18.1939 19.3415 18.1435C19.2291 18.0932 19.1078 18.0655 18.9846 18.062C18.8614 18.0585 18.7387 18.0793 18.6236 18.1232C18.5085 18.1672 18.4031 18.2333 18.3135 18.318C16.9735 19.5824 15.2906 20.424 13.475 20.7375C11.6594 21.0511 9.79173 20.8227 8.10521 20.0809C6.41869 19.3392 4.98811 18.1169 3.9922 16.5668C2.99629 15.0167 2.4792 13.2076 2.50552 11.3653C2.53185 9.52308 3.10042 7.72943 4.14021 6.20844C5.18 4.68745 6.64491 3.50655 8.35193 2.81328C10.059 2.12 11.9324 1.94509 13.7383 2.31037C15.5442 2.67566 17.2023 3.56496 18.5057 4.86718C18.9206 5.28671 19.3108 5.69921 19.6905 6.11288L17.7792 8.02421C17.6479 8.15533 17.5585 8.32244 17.5223 8.50439C17.486 8.68635 17.5046 8.87496 17.5756 9.04636C17.6466 9.21776 17.7669 9.36423 17.9212 9.46723C18.0755 9.57024 18.2569 9.62514 18.4424 9.62499H23.1299C23.3786 9.62499 23.617 9.52622 23.7929 9.35041C23.9687 9.17459 24.0674 8.93613 24.0674 8.68749V3.99999C24.0674 3.81458 24.0124 3.63333 23.9093 3.47918C23.8063 3.32503 23.6599 3.2049 23.4885 3.13398Z" fill="black"/>
</svg>
