<svg width="27" height="27" viewBox="0 0 27 27" fill="none" xmlns="http://www.w3.org/2000/svg">
<path d="M2.25 13.5C2.25 19.7134 7.28663 24.75 13.5 24.75C19.7134 24.75 24.75 19.7134 24.75 13.5C24.75 7.28663 19.7134 2.25 13.5 2.25C7.28663 2.25 2.25 7.28663 2.25 13.5Z" stroke="black" stroke-width="2" stroke-linecap="round" stroke-linejoin="round"/>
<path d="M14.625 2.30624C14.625 2.30624 18 6.74999 18 13.5C18 20.25 14.625 24.6937 14.625 24.6937M12.375 24.6937C12.375 24.6937 8.99999 20.25 8.99999 13.5C8.99999 6.74999 12.375 2.30624 12.375 2.30624M2.95874 17.4375H24.0412M2.95874 9.56249H24.0412" stroke="black" stroke-width="2" stroke-linecap="round" stroke-linejoin="round"/>
</svg>
