<svg width="231" height="192" viewBox="0 0 231 192" fill="none" xmlns="http://www.w3.org/2000/svg">
<path d="M79 144H-11V175H79V144Z" fill="#3E3E3E"/>
<path d="M137.561 24.0655H120.268V192H137.561V24.0655Z" fill="#EAEAEA"/>
<path d="M141.02 142.991C141.996 141.805 139.371 139.278 137.898 138.585L135.149 133.962L116.827 130.034C112.091 129.233 110.016 130.311 107.834 131.883L86.248 144.793V174.251C97.1209 180.245 104.89 181.986 131.229 180.245C148.275 179.12 148.434 173.959 148.434 173.959C138.005 169.799 138.572 145.98 141.02 143.006V142.991Z" fill="#FBBC90"/>
<path d="M86.2657 174.159V148.676C118.494 148.676 149.924 173.173 148.452 173.866C148.452 173.866 148.292 179.012 131.247 180.152C104.907 181.893 97.1386 180.152 86.2657 174.159Z" fill="#FBBC90"/>
<path d="M131.708 133.208L116.844 130.018C112.109 129.217 108.845 159.368 108.845 159.368C108.845 159.368 112.747 159.245 114.61 170.107C116.277 179.844 133.18 178.411 145.827 176.809C137.473 165.916 131.708 133.208 131.708 133.208Z" fill="#E79A6E"/>
<path d="M119.523 160.092C116.596 160.092 114.219 158.028 114.219 155.486C114.219 152.944 116.596 150.879 119.523 150.879H147.689C150.616 150.879 152.993 152.944 152.993 155.486C152.993 158.028 150.616 160.092 147.689 160.092H119.523Z" fill="#FBBC90"/>
<path d="M124.613 155.686C124.613 157.597 122.999 159.168 120.995 159.168H117.182C116.72 159.168 116.366 157.612 116.366 155.686C116.366 153.76 116.738 152.22 117.182 152.22H120.995C122.982 152.22 124.613 153.776 124.613 155.686Z" fill="#FFD9C0"/>
<path d="M119.186 159.676C118.458 159.676 117.714 159.646 117.11 159.646C117.891 160.046 118.778 160.277 119.753 160.277H147.37C148.363 160.277 149.285 160.031 150.084 159.63L119.203 159.676H119.186Z" fill="#E79A6E"/>
<path d="M119.736 169.275C116.809 169.275 114.432 167.21 114.432 164.668C114.432 162.126 116.809 160.062 119.736 160.062H145.738C148.665 160.062 151.042 162.126 151.042 164.668C151.042 167.21 148.665 169.275 145.738 169.275H119.736Z" fill="#FBBC90"/>
<path d="M124.844 164.869C124.844 166.779 123.23 168.351 121.226 168.351H117.412C116.951 168.351 116.596 166.794 116.596 164.869C116.596 162.943 116.969 161.402 117.412 161.402H121.226C123.212 161.402 124.844 162.958 124.844 164.869Z" fill="#FFD9C0"/>
<path d="M119.416 168.859C118.689 168.859 117.501 168.859 117.501 168.859C118.317 169.306 118.955 169.475 119.984 169.475H145.401C146.394 169.475 147.317 169.229 148.115 168.828L119.434 168.874L119.416 168.859Z" fill="#E79A6E"/>
<path d="M124.383 177.117C121.953 177.117 119.984 175.407 119.984 173.296C119.984 171.185 121.953 169.475 124.383 169.475H144.106C146.536 169.475 148.505 171.185 148.505 173.296C148.505 175.407 146.536 177.117 144.106 177.117H124.383Z" fill="#FBBC90"/>
<path d="M128.427 173.296C128.427 174.883 127.079 176.177 125.429 176.177H122.254C121.882 176.177 121.562 174.883 121.562 173.296C121.562 171.709 121.864 170.415 122.254 170.415H125.429C127.079 170.415 128.427 171.709 128.427 173.296Z" fill="#FFD9C0"/>
<path d="M123.709 176.686C123.177 176.686 122.414 176.686 122.095 176.686C122.698 177.009 123.407 177.194 124.152 177.194H142.9C143.681 177.194 144.408 176.994 145.029 176.655L123.709 176.686Z" fill="#E79A6E"/>
<path d="M122.095 150.895C119.168 150.895 116.791 148.83 116.791 146.288C116.791 143.746 119.168 141.681 122.095 141.681H146.678C149.605 141.681 151.982 143.746 151.982 146.288C151.982 148.83 149.605 150.895 146.678 150.895H122.095Z" fill="#FBBC90"/>
<path d="M122.449 150.479C120.605 150.479 120.622 150.402 119.611 150.355C120.356 150.71 121.421 151.095 122.325 151.095H146.341C147.334 151.095 148.257 150.848 149.055 150.448L122.449 150.494V150.479Z" fill="#E79A6E"/>
<path d="M127.203 146.488C127.203 148.399 125.589 149.97 123.585 149.97H119.771C119.31 149.97 118.955 148.414 118.955 146.488C118.955 144.562 119.328 143.022 119.771 143.022H123.585C125.571 143.022 127.203 144.578 127.203 146.488Z" fill="#FFD9C0"/>
<path d="M147.033 147.274C146.27 145.733 144.106 141.897 144.106 141.897H131.087C134.12 144.901 137.011 148.029 139.849 151.095C142.652 151.095 144.461 151.095 144.496 151.095C146.785 150.463 148.097 149.462 147.033 147.289V147.274Z" fill="#E79A6E"/>
<path d="M86.7624 164.668V144.455L86.248 144.763V166.132C106.823 166.132 113.687 156.272 115.975 149.138C113.226 156.087 105.954 164.668 86.7624 164.668Z" fill="#E79A6E"/>
<path d="M107.568 131.79L85.9819 144.701V166.07C118.21 166.07 116.844 141.866 116.844 141.866L125.536 141.835C134.972 145.286 136.196 154.315 144.904 150.818C146.43 150.201 147.193 149.046 146.501 147.721C146.501 147.721 141.534 137.691 140.24 134.579C139.122 131.898 116.578 129.957 116.578 129.957C111.843 129.156 109.767 130.234 107.586 131.806L107.568 131.79Z" fill="#FBBC90"/>
<path d="M86.4608 165.069V144.408L85.9819 144.701V166.07C104.287 166.07 111.736 158.259 114.769 151.511C111.452 157.997 103.861 165.053 86.4608 165.053V165.069Z" fill="#E79A6E"/>
<path d="M126.014 140.834C126.014 140.834 117.341 141.234 117.306 141.866L125.518 141.835C134.954 145.286 136.178 154.315 144.887 150.818C136.55 151.511 135.433 144.285 125.997 140.834H126.014Z" fill="#E79A6E"/>
<path d="M146.643 147.69L143.982 142.39C143.468 143.391 143.468 144.593 144.142 145.625L146.589 149.739C146.98 149.154 147.033 148.43 146.643 147.705V147.69Z" fill="#FFD9C0"/>
<path d="M76.5458 174.698C75.8363 175.931 74.1159 176.424 72.6969 175.823C71.2779 175.207 70.7103 173.712 71.4021 172.48C72.1116 171.247 73.8321 170.754 75.251 171.355C76.67 171.971 77.2376 173.466 76.5458 174.698Z" fill="#303030"/>
<path d="M76.1201 174.513C75.5348 175.546 74.0981 175.961 72.9097 175.453C71.7213 174.945 71.2424 173.697 71.8278 172.664C72.4131 171.632 73.8498 171.216 75.0382 171.725C76.2265 172.233 76.7054 173.481 76.1201 174.513Z" fill="#212121"/>
<path d="M70.4619 173.928C70.2491 175.284 68.7946 176.239 67.216 176.039C65.6552 175.854 64.5555 174.59 64.7861 173.219C65.0166 171.848 66.4533 170.908 68.0319 171.108C69.6105 171.309 70.6925 172.557 70.4619 173.928Z" fill="#303030"/>
<path d="M70.0008 173.882C69.8234 175.022 68.5996 175.807 67.3048 175.653C65.9922 175.499 65.0876 174.436 65.265 173.312C65.4424 172.171 66.6662 171.386 67.961 171.54C69.2736 171.694 70.1782 172.757 70.0008 173.882Z" fill="#212121"/>
<path d="M63.7041 174.821C62.9237 176.008 61.1677 176.424 59.7843 175.746C58.4008 175.068 57.9396 173.543 58.72 172.341C59.5005 171.155 61.2564 170.739 62.6399 171.417C64.0234 172.094 64.4846 173.62 63.7041 174.821Z" fill="#303030"/>
<path d="M63.2961 174.621C62.6399 175.623 61.1854 175.962 60.0325 175.391C58.8796 174.821 58.4894 173.558 59.1457 172.557C59.8019 171.555 61.2564 171.216 62.4093 171.786C63.5622 172.356 63.9524 173.62 63.2961 174.621Z" fill="#212121"/>
<path d="M120.268 124.949L137.561 127.43V24.0655H120.268V124.949Z" fill="#C6C6C6"/>
<path d="M144.106 177.117H136.603C134.989 177.348 133.162 177.548 131.105 177.687C105.386 179.397 96.5709 177.918 86.2656 172.634V174.174C97.1384 180.168 104.907 181.909 131.247 180.168C139.636 179.613 143.929 178.088 146.128 176.67C145.525 176.948 144.833 177.117 144.106 177.117Z" fill="#E79A6E"/>
<path d="M137.561 180.091V177.102H124.383C122.485 177.102 120.888 176.054 120.268 174.59V182.509L137.561 180.075V180.091Z" fill="#C6C6C6"/>
</svg>
