<svg width="364" height="364" viewBox="0 0 364 364" fill="none" xmlns="http://www.w3.org/2000/svg">
<g filter="url(#filter0_d_21_530)">
<path d="M356 81.2346H318.793V91.1618H356V81.2346Z" fill="#EBEBEB"/>
<path d="M163.188 311.047C163.191 307.715 162.433 304.426 160.972 301.438C159.511 298.449 157.386 295.84 154.762 293.814C152.139 291.788 149.087 290.4 145.845 289.757C142.603 289.113 139.258 289.233 136.069 290.105C132.88 290.978 129.934 292.581 127.459 294.788C124.984 296.996 123.047 299.75 121.799 302.835C120.551 305.921 120.025 309.255 120.262 312.579C120.499 315.903 121.493 319.127 123.166 322L123.227 322.077C124.053 323.481 125.086 324.484 126.134 325.934L138.6 342.626C138.961 343.11 139.429 343.503 139.967 343.773C140.504 344.043 141.096 344.184 141.697 344.184C142.298 344.184 142.89 344.043 143.428 343.773C143.965 343.503 144.433 343.11 144.795 342.626L157.031 326.227C158.15 324.898 159.192 323.505 160.152 322.054L160.198 322C162.146 318.684 163.178 314.902 163.188 311.047ZM141.659 320.481C139.787 320.481 137.958 319.921 136.402 318.872C134.846 317.823 133.634 316.333 132.918 314.589C132.202 312.845 132.015 310.926 132.381 309.075C132.746 307.224 133.648 305.524 134.972 304.19C136.296 302.856 137.982 301.948 139.818 301.58C141.654 301.213 143.556 301.403 145.285 302.126C147.013 302.85 148.49 304.074 149.529 305.644C150.567 307.214 151.121 309.06 151.119 310.947C151.119 312.2 150.875 313.44 150.399 314.597C149.924 315.754 149.227 316.806 148.348 317.691C147.469 318.577 146.426 319.279 145.279 319.757C144.131 320.236 142.901 320.482 141.659 320.481Z" fill="#E0E0E0"/>
<path d="M83.4123 34.044H46.2051V43.9711H83.4123V34.044Z" fill="#EBEBEB"/>
<path d="M67.1988 54.4305C67.1956 54.3714 67.1956 54.3122 67.1988 54.2531V53.744C67.1988 53.2735 67.1988 52.6256 67.1988 51.7848C67.1988 50.0724 67.1988 47.6119 67.1376 44.5034L67.2524 44.6191L29.9993 44.6962L30.1905 44.5034V47.0411C30.1905 47.8818 30.1905 48.7226 30.1905 49.5479V54.4305L29.9993 54.2454L56.5147 54.3302L64.3385 54.3842H66.457H67.0076H67.2065C67.2065 54.3842 67.1529 54.3842 67.0382 54.3842H66.5029H64.4303L56.6447 54.4382L29.9993 54.6156H29.8157V54.4305C29.8157 52.8313 29.8157 51.2037 29.8157 49.5479V44.5188L30.0069 44.326L67.2141 44.4031H67.3288V44.5188C67.3288 47.6581 67.283 50.1419 67.2677 51.8697C67.2677 52.695 67.2677 53.3429 67.2677 53.798C67.2677 53.9986 67.2677 54.1605 67.2677 54.2917C67.2677 54.4228 67.2065 54.4382 67.1988 54.4305Z" fill="#E0E0E0"/>
<path d="M351.878 296.338H314.671V306.265H351.878V296.338Z" fill="#EBEBEB"/>
<path d="M335.664 316.717C335.657 316.658 335.657 316.598 335.664 316.539C335.664 316.408 335.664 316.239 335.664 316.03C335.664 315.56 335.664 314.912 335.664 314.079C335.664 312.359 335.626 309.898 335.603 306.79L335.718 306.905L298.51 306.982C298.594 306.898 298.319 307.175 298.694 306.79V316.709L298.51 316.524L325.026 316.609L332.85 316.663H334.968H335.519H335.718H335.542H335.014H332.934L325.156 316.717L298.442 316.933H298.25V306.797C298.625 306.419 298.357 306.697 298.442 306.604L335.649 306.682H335.763V306.797C335.763 309.937 335.718 312.42 335.702 314.156C335.702 314.974 335.702 315.621 335.702 316.084C335.702 316.285 335.702 316.439 335.702 316.57C335.693 316.62 335.681 316.669 335.664 316.717Z" fill="#E0E0E0"/>
<path d="M253.319 38.672C253.315 38.6129 253.315 38.5536 253.319 38.4946V37.9855C253.319 37.515 253.319 36.867 253.319 36.034C253.319 34.3216 253.319 31.8533 253.258 28.7448L253.372 28.8605L216.165 28.9377L216.356 28.7448V33.7817C216.356 35.4375 216.356 37.065 216.356 38.6642L216.173 38.4791L242.688 38.564L250.512 38.618H252.63H253.189H253.319C253.319 38.618 253.265 38.618 253.15 38.618H252.615H250.543L242.757 38.672L216.112 38.7568H215.928V38.564C215.928 36.9673 215.928 35.3398 215.928 33.6814V28.7525L216.119 28.5674L253.326 28.6368H253.441V28.7525C253.441 31.8919 253.395 34.3756 253.38 36.1111C253.38 36.9364 253.38 37.5767 253.38 38.0395V38.5254C253.319 38.6257 253.319 38.6797 253.319 38.672Z" fill="#E0E0E0"/>
<path d="M258.366 28.7449C258.36 28.6833 258.36 28.6213 258.366 28.5597V28.0352C258.366 27.5416 258.366 26.8782 258.366 26.0452C258.366 24.3019 258.321 21.8414 258.29 18.8177L258.428 18.9566L236.073 19.0106C235.905 19.1802 236.302 18.7792 236.256 18.8177V23.924C236.256 25.5901 236.256 27.1945 236.256 28.7371L236.08 28.5597L252.072 28.6446L256.73 28.6909H257.984H258.435C258.3 28.7019 258.165 28.7019 258.03 28.6909H256.806L252.218 28.7449L236.103 28.8297H235.92V28.6446C235.92 27.1019 235.92 25.4975 235.92 23.8314V18.8254L236.111 18.6326L258.466 18.6866H258.604V18.8254C258.604 21.9108 258.542 24.3714 258.527 26.13C258.527 26.9554 258.527 27.611 258.527 28.0892C258.527 28.5675 258.374 28.7603 258.366 28.7449Z" fill="#E0E0E0"/>
<path d="M43.3372 321.09C43.3372 321.09 43.3372 321.021 43.3372 320.905V320.396C43.3372 319.933 43.3372 319.278 43.3372 318.445C43.3372 316.732 43.3372 314.264 43.2684 311.163L43.3831 311.279L6.1759 311.348L6.3671 311.163V316.192C6.3671 317.843 6.3671 319.478 6.3671 321.075L6.18355 320.882L32.6989 320.975L40.5228 321.021H42.6412H43.1995H43.3907H43.2225H42.6871H40.6145L32.8289 321.075L6.18355 321.16H6V320.975C6 319.378 6 317.743 6 316.092V311.063L6.1912 310.87L43.3984 310.947H43.5131V311.063C43.5131 314.194 43.4672 316.686 43.4519 318.414C43.4519 319.239 43.4519 319.879 43.4519 320.342V320.828C43.4333 320.923 43.3942 321.012 43.3372 321.09Z" fill="#E0E0E0"/>
<path d="M48.3543 311.163C48.3486 311.099 48.3486 311.035 48.3543 310.97C48.3543 310.832 48.3543 310.654 48.3543 310.446C48.3543 309.96 48.3543 309.297 48.3543 308.456C48.3543 306.713 48.3084 304.252 48.2778 301.236L48.4155 301.367L26.0605 301.421L26.2441 301.236V306.335C26.2441 307.993 26.2441 309.605 26.2441 311.148L26.0682 310.963L42.06 311.048L46.7176 311.102H47.9719H48.4231C48.2882 311.113 48.1527 311.113 48.0178 311.102H46.7941L42.2053 311.148L26.0911 311.233H25.9076V311.055C25.9076 309.513 25.9076 307.9 25.9076 306.242V301.144L26.0988 300.951L48.4537 301.005H48.5914V301.144C48.5914 304.229 48.5302 306.682 48.5149 308.448C48.5149 309.273 48.5149 309.921 48.5149 310.407C48.5149 310.893 48.3925 311.171 48.3543 311.163Z" fill="#E0E0E0"/>
<path d="M337.4 349.799C337.4 349.907 264.156 350 173.826 350C83.4965 350 10.2369 349.907 10.2369 349.799C10.2369 349.691 83.4659 349.599 173.826 349.599C264.187 349.599 337.4 349.691 337.4 349.799Z" fill="#263238"/>
<path d="M321.783 58.5261H25.9001C20.4809 58.5261 16.0878 62.9568 16.0878 68.4224V270.367C16.0878 275.832 20.4809 280.263 25.9001 280.263H321.783C327.202 280.263 331.596 275.832 331.596 270.367V68.4224C331.596 62.9568 327.202 58.5261 321.783 58.5261Z" fill="#263238"/>
<path d="M331.596 68.4224L331.55 67.7282C331.537 67.4434 331.504 67.1598 331.45 66.8798C331.393 66.4854 331.306 66.096 331.19 65.715C330.824 64.4258 330.2 63.2257 329.357 62.1885C328.514 61.1512 327.469 60.2987 326.288 59.6832C325.464 59.2581 324.587 58.9493 323.68 58.7653C322.669 58.5975 321.644 58.5355 320.621 58.5801H313.516H295.796L182.874 58.6496H104.865H27.116C26.1548 58.6112 25.1922 58.6628 24.2404 58.8038C23.2936 58.9657 22.3777 59.2754 21.5254 59.7217C19.8034 60.6131 18.3861 62.0049 17.4567 63.7173C17.0056 64.5796 16.6761 65.5013 16.4778 66.4555C16.3201 67.4291 16.2586 68.4162 16.2942 69.402V87.5517C16.2942 95.6919 16.2942 103.919 16.2942 112.235V163.143C16.2942 197.738 16.2942 233.551 16.2942 270.236C16.2877 272.493 17.065 274.682 18.4913 276.422C19.9176 278.162 21.9029 279.344 24.1028 279.762C25.2087 279.927 26.328 279.984 27.4449 279.931H116.681H215.599H305.08H320.644C321.487 279.959 322.331 279.92 323.168 279.816C325.21 279.53 327.107 278.588 328.577 277.129C330.047 275.67 331.012 273.772 331.328 271.717C331.423 270.895 331.456 270.067 331.427 269.241C331.427 268.408 331.427 267.582 331.427 266.749V261.805C331.427 248.687 331.427 236.107 331.427 224.063C331.427 175.986 331.481 137.072 331.496 110.175C331.496 96.7383 331.496 86.2635 331.534 79.2135C331.534 75.6807 331.534 72.9811 331.534 71.1607C331.534 69.3403 331.534 68.4224 331.534 68.4224C331.534 68.4224 331.534 69.348 331.534 71.1607C331.534 72.9733 331.534 75.6807 331.534 79.2135C331.534 86.2944 331.534 96.7383 331.534 110.175C331.534 137.072 331.58 175.986 331.611 224.063C331.611 236.086 331.611 248.667 331.611 261.805C331.611 263.448 331.611 265.091 331.611 266.749V269.241C331.636 270.083 331.6 270.926 331.504 271.763C331.263 273.475 330.591 275.095 329.552 276.47C328.513 277.845 327.142 278.928 325.569 279.615C324.773 279.954 323.938 280.19 323.083 280.317C322.231 280.423 321.372 280.465 320.514 280.441H305.111H215.63H116.712H27.4602C26.3177 280.493 25.1728 280.433 24.0416 280.263C21.7398 279.826 19.6623 278.59 18.1691 276.77C16.6759 274.949 15.8611 272.66 15.8659 270.297C15.8659 233.613 15.8659 197.792 15.8659 163.205C15.8659 145.911 15.8659 128.942 15.8659 112.296V69.4792C15.8331 68.4671 15.8997 67.4543 16.0648 66.4555C16.2713 65.4613 16.6136 64.5008 17.082 63.6016C18.058 61.819 19.5347 60.3672 21.3266 59.4286C22.2157 58.9672 23.1702 58.6472 24.1563 58.4799C25.1307 58.3341 26.1164 58.2799 27.1007 58.3179H61.4323H104.873H182.881L295.803 58.3873H313.523H320.621C321.645 58.3524 322.669 58.4196 323.68 58.5879C324.597 58.7735 325.483 59.0904 326.311 59.5289C327.5 60.1527 328.549 61.0162 329.394 62.0657C330.238 63.1152 330.86 64.3284 331.221 65.6302C331.333 66.0113 331.414 66.4008 331.466 66.7949C331.517 67.0776 331.548 67.3638 331.557 67.6511C331.596 68.1833 331.596 68.4224 331.596 68.4224Z" fill="#263238"/>
<path d="M315.741 160.883C317.405 160.883 319.032 161.381 320.415 162.313C321.799 163.245 322.877 164.57 323.514 166.121C324.151 167.671 324.317 169.377 323.993 171.023C323.668 172.669 322.867 174.181 321.69 175.367C320.514 176.554 319.015 177.362 317.383 177.689C315.751 178.017 314.059 177.849 312.522 177.207C310.985 176.564 309.671 175.477 308.747 174.082C307.822 172.686 307.329 171.046 307.329 169.368C307.329 167.118 308.215 164.959 309.793 163.368C311.37 161.777 313.51 160.883 315.741 160.883Z" fill="#455A64"/>
<path d="M32.7602 146.675V191.976C32.7612 192.391 32.6811 192.802 32.5243 193.185C32.3676 193.569 32.1373 193.918 31.8468 194.212C31.5562 194.505 31.211 194.738 30.831 194.897C30.451 195.056 30.0437 195.138 29.6322 195.138C29.2205 195.138 28.8127 195.056 28.4323 194.898C28.0518 194.739 27.7062 194.506 27.415 194.212C27.1238 193.918 26.8929 193.57 26.7353 193.186C26.5777 192.802 26.4966 192.391 26.4966 191.976V146.698C26.4966 145.859 26.8269 145.055 27.415 144.462C28.003 143.869 28.8006 143.536 29.6322 143.536C30.4592 143.536 31.2525 143.866 31.8387 144.454C32.4249 145.043 32.7562 145.841 32.7602 146.675Z" fill="#455A64"/>
<path d="M302.082 65.7073H38.5956V273.46H302.082V65.7073Z" fill="#EBEBEB"/>
<path d="M208.479 215.679L228.853 251.893L278.947 251.145L276.11 211.845L208.479 215.679Z" fill="#E0E0E0"/>
<path d="M142.263 93.3829L134.906 150.624L150.102 154.28L179.815 151.303L174.362 88.7703L142.263 93.3829Z" fill="#E0E0E0"/>
<path d="M96.1081 210.534H60.9888V167.887L99.152 168.272L96.1081 210.534Z" fill="#F5F5F5"/>
<path d="M240.685 211.845C240.685 210.634 246.872 168.272 246.872 168.272C246.872 168.272 271.085 161.585 271.177 162.541C271.269 163.498 275.995 210.719 275.995 210.719L240.685 211.845Z" fill="#F5F5F5"/>
<path d="M65.0269 103.349C65.0957 104.382 81.7988 138.259 81.7988 138.259L101.14 133.091V94.1156L81.1946 93.6528L65.0269 103.349Z" fill="#E0E0E0"/>
<path d="M183.142 174.034H156.397V186.761H183.142V174.034Z" fill="#E0E0E0"/>
<path d="M183.264 190.98L156.328 192.353L154.959 218.147L185.719 215.679L183.264 190.98Z" fill="#E0E0E0"/>
<path d="M291.161 143.15L287.421 90.7913H302.013L302.082 142.108L291.161 143.15Z" fill="#E0E0E0"/>
<path d="M231.4 82.2141L237.48 147.462L269.38 144.577L263.812 88.9248L238.558 82.2141H231.4Z" fill="#E0E0E0"/>
<path d="M84.8351 93.8844L38.7792 93.1824L38.8251 90.0971L82.3419 90.7604L87.3665 65.7305L90.3722 66.3398L84.8351 93.8844Z" fill="white"/>
<path d="M60.767 144.284L38.4504 93.8072L39.1463 93.491L61.203 143.366L101.049 132.714L101.24 133.462L60.767 144.284Z" fill="white"/>
<path d="M99.1596 167.501H38.8098V169.044H99.1596V167.501Z" fill="white"/>
<path d="M61.3636 143.829H60.5988V210.542H61.3636V143.829Z" fill="white"/>
<path d="M96.3146 210.195H38.8098V210.966H96.3146V210.195Z" fill="white"/>
<path d="M93.3319 270.891L38.5651 258.704L39.2228 255.688L90.5404 267.112L99.3432 143.582L100.666 92.2028L102.724 65.9155L105.767 66.1546L103.718 92.4033L102.402 143.736L93.3319 270.891Z" fill="white"/>
<path d="M102.066 95.7589L83.4355 93.8614L83.749 90.7915L100.215 92.473L102.938 86.6109L127.48 92.6119L237.84 79.9233L276.286 89.997L301.968 89.2488L302.059 92.3265L275.942 93.0978L237.618 83.055L127.289 95.7358L104.651 90.2053L102.066 95.7589Z" fill="white"/>
<path d="M230.375 214.244L227.339 213.843L235.935 147.446L229.327 82.2756V65.7073H232.387V82.1985L239.017 147.485L230.375 214.244Z" fill="white"/>
<path d="M94.808 223.377L94.6245 220.299L275.016 209.238L299.566 158.823L302.312 160.181L276.982 212.208L276.095 212.262L94.808 223.377Z" fill="white"/>
<path d="M185.13 217.538L173.597 88.8401L172.97 66.0624L174.499 66.0161L175.126 88.7552L186.652 217.399L185.13 217.538Z" fill="white"/>
<path d="M160.917 272.635L147.579 217.7V155.561L132.566 151.796L139.082 92.8121L138.478 65.7381L141.537 65.6687L142.149 92.951L142.141 93.0513L135.9 149.452L150.638 153.154V217.322L163.892 271.902L160.917 272.635Z" fill="white"/>
<path d="M149.108 167.887H99.1519V168.658H149.108V167.887Z" fill="white"/>
<path d="M100.941 143.311L100.787 144.066L134.152 150.992L134.306 150.236L100.941 143.311Z" fill="white"/>
<path d="M149.024 193.811L137.155 191.166V168.272H137.919V190.548L149.192 193.055L149.024 193.811Z" fill="white"/>
<path d="M130.493 272.596L123.824 251.006H93.3013V247.921H126.073L133.415 271.678L130.493 272.596Z" fill="white"/>
<path d="M228.631 252.287L208.15 215.864L208.816 215.486L229.075 251.508L301.914 250.412L301.929 251.184L228.631 252.287Z" fill="white"/>
<path d="M264.47 251.893H263.705V272.688H264.47V251.893Z" fill="white"/>
<path d="M278.565 251.176L275.727 211.876L261.105 65.7458L261.869 65.6687L276.492 211.807L279.33 251.114L278.565 251.176Z" fill="white"/>
<path d="M302.054 141.709L149.08 153.959L149.141 154.728L302.115 142.478L302.054 141.709Z" fill="white"/>
<path d="M288.176 92.0613L286.653 92.1992L291.195 143.234L292.719 143.096L288.176 92.0613Z" fill="white"/>
<path d="M289.916 120.731L267.503 126.325L267.687 127.074L290.1 121.48L289.916 120.731Z" fill="white"/>
<path d="M280.064 123.303L276.095 100.611L264.906 99.415L264.982 98.6514L276.745 99.9087L280.813 123.165L280.064 123.303Z" fill="white"/>
<path d="M204.315 86.1365L202.791 86.2683L208.103 148.764L209.627 148.633L204.315 86.1365Z" fill="white"/>
<path d="M234.03 120.308L206.924 126.324L207.088 127.077L234.194 121.062L234.03 120.308Z" fill="white"/>
<path d="M228.113 251.803L225.329 273.574L226.846 273.772L229.63 252L228.113 251.803Z" fill="white"/>
<path d="M102.196 169.583L99.1519 217.468L146.607 215.139V196.349L134.179 193.58V171.643L102.196 169.583Z" fill="#E0E0E0"/>
<path d="M89.1254 181.246C89.1263 179.574 88.745 177.925 88.0113 176.426C87.2775 174.927 86.211 173.619 84.8945 172.603C83.5781 171.587 82.0471 170.891 80.4206 170.569C78.7941 170.246 77.1159 170.306 75.5162 170.745C73.9165 171.183 72.4385 171.987 71.197 173.094C69.9555 174.202 68.9838 175.583 68.3575 177.131C67.7313 178.679 67.4672 180.352 67.5859 182.019C67.7046 183.687 68.2029 185.304 69.0419 186.746V186.784C69.4549 187.486 69.9673 187.988 70.495 188.728L76.751 197.09C76.9328 197.332 77.168 197.529 77.4381 197.665C77.7081 197.801 78.0057 197.871 78.3074 197.871C78.6091 197.871 78.9067 197.801 79.1767 197.665C79.4468 197.529 79.682 197.332 79.8638 197.09L85.9821 188.867C86.5419 188.199 87.0653 187.502 87.5499 186.777C88.5614 185.111 89.1059 183.199 89.1254 181.246ZM78.3418 185.982C77.4018 185.984 76.4825 185.704 75.7003 185.178C74.9181 184.652 74.3082 183.904 73.9478 183.029C73.5874 182.153 73.4927 181.189 73.6757 180.26C73.8587 179.33 74.3112 178.476 74.9759 177.805C75.6405 177.135 76.4875 176.678 77.4095 176.494C78.3315 176.309 79.2871 176.405 80.1552 176.768C81.0233 177.132 81.765 177.747 82.2863 178.536C82.8076 179.325 83.085 180.252 83.0835 181.2C83.0815 182.468 82.5813 183.683 81.6925 184.579C80.8037 185.476 79.5988 185.98 78.3418 185.982Z" fill="#FF725E"/>
<path d="M190.606 142.98C190.61 141.307 190.231 139.655 189.499 138.154C188.767 136.652 187.701 135.341 186.384 134.323C185.068 133.305 183.536 132.607 181.908 132.283C180.281 131.959 178.601 132.019 176.999 132.457C175.398 132.895 173.919 133.7 172.676 134.809C171.434 135.917 170.462 137.3 169.836 138.85C169.21 140.4 168.947 142.074 169.067 143.743C169.188 145.412 169.688 147.03 170.53 148.472V148.518C170.943 149.22 171.463 149.722 171.991 150.462L178.262 158.808C178.444 159.051 178.679 159.248 178.949 159.383C179.219 159.519 179.517 159.59 179.819 159.59C180.12 159.59 180.418 159.519 180.688 159.383C180.958 159.248 181.193 159.051 181.375 158.808L187.547 150.593C188.095 149.926 188.606 149.228 189.076 148.503C190.07 146.835 190.599 144.926 190.606 142.98ZM179.822 147.716C178.883 147.716 177.965 147.435 177.184 146.909C176.403 146.383 175.794 145.634 175.435 144.759C175.075 143.884 174.981 142.921 175.164 141.992C175.348 141.062 175.8 140.209 176.464 139.539C177.128 138.869 177.975 138.413 178.896 138.228C179.817 138.043 180.772 138.138 181.64 138.501C182.508 138.863 183.249 139.477 183.771 140.265C184.293 141.053 184.572 141.979 184.572 142.926C184.572 143.556 184.449 144.179 184.209 144.761C183.97 145.343 183.62 145.871 183.178 146.316C182.736 146.761 182.212 147.113 181.635 147.354C181.057 147.594 180.439 147.717 179.815 147.716H179.822Z" fill="#FF725E"/>
<path d="M145.835 237.192C145.839 236.044 145.58 234.91 145.078 233.88C144.576 232.849 143.845 231.95 142.942 231.251C142.039 230.552 140.989 230.072 139.872 229.85C138.755 229.628 137.603 229.668 136.504 229.969C135.406 230.269 134.391 230.821 133.538 231.582C132.686 232.343 132.019 233.292 131.59 234.355C131.161 235.418 130.981 236.567 131.064 237.712C131.147 238.857 131.491 239.967 132.069 240.956C132.352 241.434 132.711 241.781 133.071 242.282L137.361 248.021C137.486 248.186 137.647 248.319 137.831 248.411C138.016 248.503 138.219 248.551 138.424 248.551C138.63 248.551 138.833 248.503 139.017 248.411C139.201 248.319 139.362 248.186 139.487 248.021L143.709 242.383C144.093 241.924 144.453 241.445 144.787 240.948C145.463 239.813 145.824 238.516 145.835 237.192ZM138.439 240.439C137.795 240.44 137.164 240.249 136.627 239.889C136.091 239.529 135.672 239.016 135.424 238.416C135.176 237.816 135.111 237.155 135.235 236.517C135.36 235.879 135.67 235.293 136.125 234.832C136.581 234.372 137.161 234.058 137.793 233.931C138.426 233.803 139.081 233.868 139.677 234.117C140.273 234.365 140.782 234.786 141.14 235.327C141.499 235.867 141.69 236.503 141.69 237.153C141.691 237.584 141.608 238.011 141.445 238.41C141.282 238.809 141.042 239.171 140.741 239.476C140.439 239.781 140.08 240.023 139.685 240.189C139.29 240.354 138.867 240.439 138.439 240.439Z" fill="#FF725E"/>
<path d="M279.987 101.806C279.979 99.9479 279.284 98.1597 278.038 96.7914C276.791 95.4232 275.083 94.5734 273.248 94.4084C271.413 94.2434 269.583 94.7751 268.117 95.8994C266.65 97.0237 265.652 98.6596 265.318 100.487C265.003 102.236 265.323 104.041 266.221 105.57C266.504 106.048 266.863 106.395 267.223 106.904L271.513 112.636C271.638 112.8 271.799 112.934 271.983 113.026C272.168 113.117 272.371 113.165 272.576 113.165C272.782 113.165 272.985 113.117 273.169 113.026C273.354 112.934 273.514 112.8 273.639 112.636L277.861 106.997C278.245 106.538 278.605 106.059 278.939 105.562C279.615 104.427 279.976 103.13 279.987 101.806ZM272.592 105.053C271.947 105.055 271.316 104.863 270.779 104.503C270.242 104.142 269.823 103.629 269.575 103.028C269.328 102.428 269.263 101.766 269.388 101.128C269.514 100.49 269.824 99.9039 270.28 99.4439C270.736 98.9839 271.318 98.6707 271.95 98.5442C272.583 98.4177 273.239 98.4834 273.834 98.733C274.43 98.9827 274.939 99.4051 275.296 99.9466C275.654 100.488 275.843 101.125 275.842 101.775C275.842 102.644 275.5 103.478 274.89 104.093C274.28 104.708 273.454 105.053 272.592 105.053Z" fill="#FF725E"/>
<path d="M122.539 105.354C122.542 103.322 122.079 101.316 121.188 99.4928C120.297 97.6697 119.001 96.0784 117.4 94.8426C115.8 93.6069 113.939 92.7598 111.962 92.3674C109.984 91.975 107.944 92.0477 105.999 92.5799C104.053 93.1121 102.256 94.0895 100.747 95.4361C99.2369 96.7827 98.0554 98.4623 97.2939 100.344C96.5324 102.226 96.2115 104.26 96.356 106.287C96.5005 108.315 97.1066 110.281 98.1272 112.034L98.1654 112.08C98.6625 112.937 99.2973 113.546 99.9321 114.441L107.542 124.615C107.763 124.909 108.048 125.147 108.376 125.311C108.704 125.475 109.065 125.561 109.431 125.561C109.797 125.561 110.158 125.475 110.485 125.311C110.813 125.147 111.099 124.909 111.32 124.615L118.807 114.587C119.489 113.776 120.125 112.926 120.712 112.042C121.901 110.017 122.532 107.708 122.539 105.354ZM109.423 111.109C108.281 111.109 107.164 110.767 106.214 110.127C105.265 109.486 104.525 108.576 104.088 107.512C103.651 106.447 103.537 105.276 103.76 104.146C103.984 103.016 104.535 101.978 105.343 101.164C106.151 100.35 107.181 99.7961 108.301 99.5723C109.422 99.3484 110.583 99.4649 111.638 99.9068C112.693 100.349 113.594 101.096 114.228 102.055C114.862 103.014 115.199 104.14 115.197 105.293C115.195 106.836 114.586 108.315 113.503 109.406C112.421 110.496 110.953 111.109 109.423 111.109Z" fill="#FF725E"/>
<path d="M52.1782 316.601C52.1782 316.601 34.9551 296.662 28.4696 276.715C21.9842 256.768 25.074 259.082 25.074 259.082C25.074 259.082 33.8232 278.435 40.4692 287.792C47.1153 297.148 58.9466 310.885 58.9466 310.885L52.1782 316.601Z" fill="#455A64"/>
<path d="M55.5661 262.168C55.4519 261.961 55.2695 261.801 55.0507 261.717C54.8319 261.632 54.5904 261.627 54.3684 261.703C54.1465 261.779 53.958 261.931 53.8359 262.133C53.7137 262.335 53.6657 262.574 53.7 262.808C54.7478 269.819 57.0116 286.256 56.9198 296.916C56.8051 310.8 56.9198 316.123 56.9198 316.123H64.0706C64.0706 316.123 62.8011 287.491 61.1874 278.759C60.0631 272.642 57.654 265.847 55.5661 262.168Z" fill="#455A64"/>
<path d="M59.4591 313.793C62.4591 306.948 64.4433 299.694 65.348 292.265C65.9369 287.167 64.8891 280.271 63.3213 271.076C62.719 267.714 62.417 264.304 62.4189 260.887C62.4293 260.509 62.5632 260.144 62.7999 259.85C63.0365 259.557 63.3627 259.35 63.7278 259.262C64.0929 259.174 64.4765 259.21 64.8192 259.364C65.1619 259.519 65.4446 259.783 65.6233 260.116C66.4876 261.658 68.9808 266.973 69.6156 270.305C71.3516 279.384 73.3095 283.919 71.8105 292.535C70.3115 301.151 64.7744 314.418 64.7744 314.418L59.4591 313.793Z" fill="#455A64"/>
<path d="M65.9445 314.38C65.9445 314.38 84.8043 273.499 86.1121 267.428C87.4198 261.358 91.8633 247.373 92.391 248.145C92.9187 248.916 93.6988 256.321 90.2955 264.759C86.8921 273.198 72.384 315.591 72.384 315.591H65.9445" fill="#455A64"/>
<path d="M57.394 312.552C57.2088 312.442 57.0323 312.318 56.8663 312.181C56.5298 311.927 56.025 311.564 55.4056 311.055C54.1513 310.06 52.3923 308.548 50.335 306.543C45.0229 301.26 40.4228 295.295 36.6528 288.802C32.893 282.326 29.7631 275.499 27.3071 268.416C26.3587 265.7 25.6704 263.479 25.2192 261.936C24.9897 261.165 24.8291 260.563 24.7144 260.154C24.6521 259.947 24.6035 259.736 24.5691 259.522C24.6617 259.719 24.7385 259.922 24.7985 260.131C24.9362 260.563 25.1274 261.15 25.3721 261.89C25.8616 263.433 26.5958 265.623 27.5747 268.323C30.1011 275.361 33.2547 282.153 36.997 288.617C40.7582 295.077 45.3058 301.036 50.5338 306.358C52.5529 308.379 54.2813 309.921 55.505 310.986C56.1092 311.518 56.5986 311.896 56.9198 312.174C57.0895 312.284 57.2483 312.411 57.394 312.552Z" fill="#263238"/>
<path d="M59.459 292.936C59.3726 292.54 59.3163 292.138 59.2908 291.733C59.199 290.885 59.0843 289.781 58.9466 288.455C58.6484 285.693 58.1818 281.875 57.5088 277.656C56.8358 273.437 56.1016 269.696 55.5204 266.973C55.245 265.669 55.0156 264.582 54.832 263.749C54.7251 263.358 54.656 262.958 54.6255 262.553C54.774 262.929 54.8941 263.316 54.985 263.71C55.1991 264.482 55.4821 265.554 55.8033 266.911C56.4534 269.619 57.2411 273.391 57.9065 277.587C58.5719 281.783 59.0002 285.624 59.2296 288.385C59.3443 289.774 59.4132 290.9 59.4514 291.679C59.4933 292.097 59.4958 292.518 59.459 292.936Z" fill="#263238"/>
<path d="M63.8795 259.753C63.9709 259.92 64.0452 260.096 64.1013 260.278L64.6673 261.82C64.9196 262.476 65.2026 263.286 65.4779 264.25C65.7533 265.214 66.1204 266.294 66.3957 267.528C66.541 268.138 66.7016 268.778 66.8622 269.449C67.0228 270.12 67.1299 270.83 67.2752 271.555C67.5811 273.005 67.7723 274.578 68.04 276.229C68.4459 279.826 68.5967 283.448 68.4912 287.066C68.3423 290.691 67.9359 294.299 67.2752 297.865C66.931 299.5 66.6251 301.058 66.2198 302.493C66.0209 303.203 65.8603 303.905 65.6538 304.56C65.4473 305.216 65.2408 305.841 65.0497 306.442C64.6902 307.653 64.2849 308.702 63.9025 309.643C63.5201 310.584 63.2218 311.371 62.9235 312.011L62.2505 313.485C62.1838 313.662 62.0965 313.83 61.9905 313.986C62.0381 313.804 62.0995 313.626 62.174 313.454L62.7782 311.95C63.0535 311.302 63.3748 310.507 63.696 309.559C64.0172 308.61 64.4608 307.561 64.782 306.358L65.3556 304.468C65.5544 303.812 65.7074 303.118 65.8909 302.408C66.2886 300.981 66.5716 299.431 66.9081 297.78C67.542 294.237 67.938 290.655 68.0935 287.059C68.1942 283.454 68.0536 279.846 67.6729 276.26C67.4588 274.617 67.2752 273.043 66.9846 271.632C66.8469 270.907 66.7475 270.197 66.5945 269.534L66.1586 267.613C65.8986 266.379 65.5621 265.299 65.302 264.335C65.042 263.371 64.782 262.553 64.5372 261.882C64.2925 261.211 64.1625 260.733 64.0401 260.339C63.9644 260.151 63.9105 259.954 63.8795 259.753Z" fill="#263238"/>
<path d="M92.1385 248.993C92.1419 249.055 92.1419 249.117 92.1385 249.178C92.1385 249.325 92.085 249.495 92.0544 249.711C91.9703 250.173 91.8632 250.868 91.6797 251.747C91.3126 253.505 90.7084 256.035 89.7677 259.105C88.827 262.175 87.5345 265.778 86.0049 269.734C84.4753 273.691 82.7163 278.003 81.0414 282.593C79.3665 287.182 78.0357 291.656 76.8044 295.705C75.5731 299.755 74.4259 303.419 73.3017 306.427C72.4396 308.811 71.4464 311.144 70.3266 313.415C69.9442 314.225 69.5618 314.827 69.3706 315.244L69.103 315.714C69.0749 315.769 69.0416 315.82 69.0035 315.868C69.0035 315.868 69.0035 315.807 69.0724 315.691L69.2942 315.205C69.5007 314.781 69.8219 314.164 70.189 313.346C70.9538 311.726 71.9709 309.343 73.0416 306.327C74.1124 303.311 75.2443 299.662 76.445 295.597C77.6457 291.533 78.9611 287.043 80.6666 282.446C82.3721 277.849 84.1235 273.537 85.6607 269.588C87.198 265.639 88.5211 262.06 89.4847 259.013C90.4483 255.966 91.1061 253.444 91.5191 251.701C91.7255 250.829 91.8556 250.158 91.9626 249.687C92.0162 249.479 92.0544 249.302 92.085 249.163C92.0939 249.104 92.112 249.047 92.1385 248.993Z" fill="#263238"/>
<path d="M33.9684 239.961C33.7071 239.712 33.3716 239.557 33.014 239.521C32.6564 239.484 32.2968 239.568 31.9913 239.759C31.6858 239.95 31.4516 240.237 31.325 240.577C31.1985 240.916 31.1867 241.288 31.2916 241.635C31.9359 243.746 32.7282 245.808 33.6625 247.805C36.2551 253.359 43.8725 273.306 47.4288 284.259C50.9851 295.212 56.0021 315.622 56.0021 315.622L63.65 314.38C63.65 314.38 56.6828 280.803 49.8838 268.709C44.4002 258.99 38.9319 244.936 33.9684 239.961Z" fill="#455A64"/>
<path d="M49.5245 291.085C49.6819 291.381 49.8124 291.691 49.9145 292.011C50.144 292.612 50.4499 293.492 50.794 294.587C51.4976 296.778 52.3236 299.84 53.2184 303.234C54.1132 306.628 54.8016 309.728 55.2987 311.973L55.8723 314.634C55.9478 314.958 55.9914 315.289 56.0023 315.622C55.8624 315.318 55.7572 315 55.6887 314.673C55.5052 313.971 55.2681 313.092 54.9927 312.043C54.4115 309.728 53.6467 306.697 52.7978 303.334C51.9489 299.971 51.1229 296.878 50.5034 294.672L49.7386 292.057C49.6307 291.742 49.5588 291.416 49.5245 291.085Z" fill="#263238"/>
<path d="M59.8261 315.004C59.8013 314.938 59.7859 314.867 59.7802 314.796C59.7802 314.634 59.7267 314.434 59.6961 314.195C59.6119 313.662 59.5431 312.868 59.3825 311.881C59.1072 309.86 58.6177 306.959 57.7841 303.396C56.8125 299.244 55.6229 295.148 54.2201 291.124C52.6906 286.573 50.7021 281.659 48.4842 276.569C44.0025 266.402 39.5285 257.393 36.584 250.721C35.1003 247.397 33.9455 244.681 33.1883 242.792C32.8059 241.851 32.5306 241.11 32.3318 240.609L32.1253 240.038C32.0967 239.974 32.0761 239.907 32.0641 239.837C32.0641 239.837 32.0641 239.891 32.1635 240.023L32.4082 240.578L33.3336 242.73C34.1673 244.604 35.3527 247.296 36.8823 250.598C39.8879 257.231 44.4002 266.217 48.8895 276.399C51.1151 281.497 53.0653 286.426 54.6102 290.993C56.0015 295.038 57.1684 299.158 58.1053 303.334C58.7343 306.136 59.2244 308.968 59.5737 311.819C59.7114 312.829 59.7573 313.624 59.8108 314.133C59.8108 314.387 59.8108 314.588 59.8643 314.742C59.8667 314.831 59.8537 314.92 59.8261 315.004Z" fill="#263238"/>
<path d="M63.65 314.38C63.5354 313.954 63.4511 313.521 63.3976 313.084C63.2447 312.189 63.0458 310.993 62.8011 309.559C62.281 306.581 61.478 302.486 60.3232 297.989C59.1683 293.492 57.8988 289.558 56.9122 286.704L55.7191 283.325C55.5531 282.92 55.4176 282.502 55.3138 282.076C55.5311 282.458 55.7154 282.858 55.8644 283.271C56.1933 284.043 56.6292 285.184 57.1799 286.604C58.5556 290.299 59.7351 294.066 60.7132 297.888C61.6964 301.702 62.4877 305.564 63.0841 309.458C63.2982 310.955 63.4665 312.166 63.5506 313.014C63.625 313.465 63.6583 313.922 63.65 314.38Z" fill="#263238"/>
<path d="M79.2671 313.277H49.5472V349.8H79.2671V313.277Z" fill="#FF725E"/>
<g opacity="0.3">
<path d="M79.2671 313.277H49.5472V349.8H79.2671V313.277Z" fill="black"/>
</g>
<path d="M69.7914 313.277H43.4213V349.8H69.7914V313.277Z" fill="#FF725E"/>
<path d="M184.327 236.335C184.327 236.335 184.327 263.456 183.99 264.983C183.654 266.51 182.866 274.64 184.832 278.412C186.797 282.184 191.47 289.828 195.539 290.892C199.608 291.957 201.91 290.892 201.91 290.892C201.91 290.892 204.41 273.229 203.592 268.161C202.774 263.093 200.915 252.032 200.915 252.032L188.312 237.608L184.327 236.335Z" fill="#FFBE9D"/>
<path d="M216.005 199.111L227.882 195.431L250.344 193.919L263.934 196.519L249.174 220.376L227.882 218.757L216.005 199.111Z" fill="#FFBE9D"/>
<path d="M263.024 149.876C263.15 155.612 262.07 161.31 259.855 166.594C257.641 171.879 254.342 176.631 250.175 180.537C248.258 174.947 246.344 169.352 244.432 163.752" fill="#263238"/>
<path d="M219.721 116.492C224.654 113.777 230.612 113.407 236.119 114.502C241.625 115.598 246.765 118.128 251.629 120.966C254.351 122.555 257.074 124.306 259.04 126.798C262.619 131.341 266.152 138.8 266.504 144.592C266.779 149.274 264.974 160.999 263.039 165.257C261.234 169.16 252.806 172.129 248.646 173.093L210.49 128.309C211.176 125.821 212.345 123.495 213.93 121.466C215.514 119.437 217.483 117.747 219.721 116.492Z" fill="#263238"/>
<path d="M213.137 122.555L222.314 120.905C217.312 132.922 215.959 160.397 213.091 173.109C209.718 168.172 201.887 153.139 202.307 147.153C202.728 141.168 202.261 121.514 213.137 122.555Z" fill="#263238"/>
<path d="M256.539 142.541C256.375 139.17 255.145 135.942 253.028 133.329C250.911 130.716 248.018 128.857 244.776 128.024L223.698 122.625C214.59 121.637 208.502 132.937 207.905 142.163C207.248 152.406 206.835 163.213 208.02 170.864C210.406 186.237 222.085 188.227 222.085 188.227C222.085 188.227 222.085 195.539 222.085 200.029L240.914 215.077L251.866 197.807L256.577 142.757C256.592 142.464 256.562 142.888 256.539 142.541Z" fill="#FFBE9D"/>
<path d="M212.486 153.74C212.48 154.255 212.673 154.752 213.025 155.125C213.376 155.498 213.858 155.718 214.368 155.738C214.616 155.758 214.867 155.728 215.103 155.649C215.34 155.57 215.559 155.444 215.747 155.279C215.935 155.114 216.089 154.912 216.198 154.687C216.308 154.461 216.372 154.215 216.387 153.964C216.393 153.449 216.2 152.953 215.849 152.58C215.497 152.206 215.015 151.986 214.505 151.966C214.257 151.945 214.006 151.975 213.769 152.053C213.532 152.132 213.312 152.257 213.124 152.423C212.936 152.588 212.782 152.79 212.673 153.016C212.563 153.243 212.5 153.489 212.486 153.74Z" fill="#263238"/>
<path d="M210.192 148.148C210.437 148.41 211.921 147.307 214.016 147.315C216.112 147.323 217.657 148.395 217.886 148.133C218.001 148.017 217.756 147.554 217.083 147.06C216.175 146.421 215.093 146.082 213.986 146.089C212.889 146.079 211.817 146.422 210.927 147.068C210.299 147.57 210.078 148.009 210.192 148.148Z" fill="#263238"/>
<path d="M230.826 153.74C230.822 154.246 231.011 154.735 231.354 155.104C231.697 155.473 232.168 155.695 232.67 155.723C232.918 155.744 233.169 155.714 233.406 155.636C233.643 155.557 233.863 155.432 234.051 155.266C234.239 155.101 234.393 154.899 234.502 154.673C234.612 154.446 234.675 154.2 234.689 153.948C234.697 153.435 234.506 152.938 234.155 152.564C233.805 152.191 233.324 151.971 232.815 151.951C232.567 151.934 232.319 151.967 232.084 152.049C231.849 152.13 231.633 152.258 231.448 152.424C231.263 152.591 231.112 152.793 231.006 153.019C230.899 153.245 230.838 153.49 230.826 153.74Z" fill="#263238"/>
<path d="M230.169 148.148C230.413 148.411 231.897 147.308 233.993 147.315C236.088 147.323 237.641 148.395 237.862 148.133C237.977 148.017 237.732 147.554 237.059 147.061C236.151 146.421 235.069 146.082 233.962 146.089C232.865 146.08 231.794 146.423 230.903 147.068C230.276 147.57 230.054 148.009 230.169 148.148Z" fill="#263238"/>
<path d="M223.599 164.817C223.599 164.694 222.299 164.462 220.181 164.184C219.645 164.13 219.133 164.015 219.049 163.652C219.002 163.09 219.127 162.528 219.408 162.04L221.006 157.921C223.224 152.051 224.83 147.23 224.601 147.122C224.372 147.014 222.375 151.75 220.158 157.589L218.628 161.739C218.294 162.392 218.194 163.142 218.345 163.86C218.426 164.048 218.547 164.215 218.701 164.349C218.855 164.482 219.036 164.579 219.232 164.632C219.529 164.715 219.835 164.76 220.142 164.763C222.268 164.925 223.592 164.933 223.599 164.817Z" fill="#263238"/>
<path d="M242.306 182.72C242.306 182.72 237.342 193.279 222.092 191.806V188.196C229.203 188.293 236.201 186.397 242.306 182.72Z" fill="#EB996E"/>
<path d="M230.834 140.481C231.04 141.06 233.128 140.79 235.606 141.098C238.084 141.407 240.065 142.085 240.394 141.569C240.547 141.322 240.195 140.797 239.392 140.219C238.324 139.522 237.108 139.091 235.843 138.962C234.583 138.801 233.303 138.949 232.111 139.394C231.201 139.756 230.742 140.211 230.834 140.481Z" fill="#263238"/>
<path d="M210.88 141.661C211.248 142.147 212.701 141.661 214.444 141.661C216.188 141.661 217.664 141.993 218.001 141.484C218.154 141.245 217.917 140.759 217.274 140.304C216.41 139.752 215.403 139.473 214.382 139.502C213.36 139.531 212.37 139.866 211.538 140.466C210.919 140.928 210.72 141.422 210.88 141.661Z" fill="#263238"/>
<path d="M212.02 128.086C212.953 125.772 215.469 124.383 217.939 124.229C220.43 124.225 222.87 124.942 224.968 126.296C234.046 131.587 238.734 144.369 247.682 149.845C249.893 151.195 252.761 149.961 254.634 151.743C256.508 153.524 257.732 156.371 256.692 158.754C257.977 157.145 259.025 155.358 259.804 153.447C260.189 152.488 260.366 151.457 260.322 150.423C260.279 149.389 260.016 148.377 259.552 147.454C258.787 146.096 257.403 145.063 257.028 143.543C256.699 142.209 257.219 140.813 257.166 139.432C257.011 138.033 256.532 136.691 255.766 135.514C252.256 129.243 247.422 123.581 241.197 120.087C237.137 117.715 232.512 116.507 227.821 116.593C223.111 116.705 218.597 118.513 215.094 121.691C213.083 123.573 210.98 125.548 212.035 128.086" fill="#263238"/>
<path d="M254.451 153.679C254.612 153.239 262.558 150.346 262.665 158.87C262.764 167.146 254.482 165.519 254.466 165.28C254.451 165.041 254.451 153.679 254.451 153.679Z" fill="#FFBE9D"/>
<path d="M256.967 162.117C257.005 162.117 257.112 162.217 257.357 162.325C257.701 162.463 258.084 162.463 258.428 162.325C259.292 161.994 260.011 160.597 260.034 159.109C260.051 158.396 259.907 157.69 259.613 157.042C259.534 156.784 259.393 156.55 259.204 156.359C259.015 156.168 258.783 156.026 258.527 155.946C258.362 155.911 258.19 155.932 258.038 156.006C257.885 156.08 257.762 156.203 257.686 156.355C257.579 156.586 257.632 156.748 257.594 156.764C257.556 156.779 257.411 156.625 257.479 156.286C257.52 156.079 257.631 155.893 257.793 155.761C258.012 155.595 258.285 155.518 258.558 155.545C258.899 155.605 259.219 155.753 259.487 155.975C259.755 156.197 259.962 156.484 260.087 156.81C260.447 157.526 260.626 158.321 260.607 159.124C260.607 160.79 259.736 162.364 258.55 162.719C258.331 162.785 258.099 162.801 257.873 162.765C257.646 162.729 257.431 162.642 257.242 162.51C256.99 162.318 256.944 162.132 256.967 162.117Z" fill="#EB996E"/>
<path d="M257.717 149.421C257.542 149.345 257.376 149.252 257.219 149.143C256.906 148.943 256.416 148.673 255.843 148.264C254.228 147.066 252.741 145.701 251.407 144.191C249.472 141.927 247.664 139.555 245.992 137.087C243.969 134.075 241.703 131.238 239.216 128.602C237.886 127.287 236.42 126.121 234.842 125.124C233.36 124.21 231.772 123.482 230.115 122.956C227.31 122.047 224.359 121.683 221.419 121.884C219.435 122.004 217.475 122.39 215.592 123.033C214.919 123.242 214.422 123.465 214.062 123.604C213.887 123.683 213.706 123.745 213.519 123.789C213.683 123.692 213.855 123.606 214.032 123.535C214.527 123.288 215.038 123.074 215.561 122.894C217.444 122.19 219.416 121.759 221.419 121.614C224.396 121.379 227.389 121.722 230.238 122.624C231.923 123.15 233.538 123.881 235.048 124.8C236.65 125.814 238.14 126.998 239.492 128.332C241.996 130.989 244.268 133.859 246.283 136.91C247.942 139.379 249.729 141.758 251.636 144.037C252.939 145.552 254.387 146.934 255.958 148.164C256.524 148.595 256.99 148.881 257.288 149.105C257.439 149.198 257.582 149.304 257.717 149.421Z" fill="#455A64"/>
<path d="M257.908 163.583C258.311 163.512 258.726 163.598 259.068 163.824C259.411 164.05 259.655 164.399 259.752 164.8C259.85 165.2 259.792 165.624 259.592 165.983C259.391 166.343 259.063 166.613 258.673 166.738C258.278 166.876 257.845 166.855 257.465 166.679C257.086 166.502 256.789 166.184 256.637 165.791C256.486 165.398 256.491 164.961 256.652 164.573C256.814 164.184 257.119 163.873 257.502 163.706" fill="white"/>
<path d="M257.518 163.706C257.155 163.987 256.888 164.376 256.753 164.817C256.693 165.044 256.692 165.282 256.748 165.51C256.804 165.738 256.916 165.948 257.074 166.12C257.258 166.337 257.502 166.494 257.774 166.572C258.047 166.649 258.336 166.644 258.605 166.557C258.875 166.47 259.113 166.304 259.289 166.081C259.466 165.858 259.573 165.587 259.598 165.303C259.626 165.072 259.597 164.837 259.512 164.62C259.428 164.404 259.292 164.211 259.116 164.061C258.758 163.778 258.323 163.611 257.869 163.583C257.869 163.583 257.999 163.498 258.259 163.49C258.493 163.494 258.724 163.545 258.937 163.642C259.15 163.739 259.341 163.879 259.499 164.053C259.657 164.227 259.777 164.432 259.853 164.655C259.93 164.878 259.96 165.114 259.942 165.349C259.917 165.704 259.786 166.044 259.568 166.324C259.349 166.604 259.052 166.812 258.715 166.92C258.378 167.028 258.017 167.031 257.678 166.93C257.339 166.829 257.038 166.627 256.814 166.352C256.628 166.135 256.501 165.873 256.445 165.592C256.388 165.311 256.405 165.02 256.493 164.747C256.602 164.389 256.822 164.076 257.12 163.853C257.372 163.706 257.51 163.683 257.518 163.706Z" fill="#263238"/>
<path d="M255.652 151.766C255.782 154.026 255.881 156.394 254.849 158.423C253.816 160.451 251.193 161.801 249.25 160.675C247.659 159.765 247.178 157.705 246.91 155.877C246.145 150.609 245.778 145.271 244.952 140.003L255.652 151.766Z" fill="#263238"/>
<path d="M214.07 124.152C214.07 124.198 214.796 124.013 216.112 123.967C217.97 123.936 219.815 124.277 221.542 124.969C222.734 125.436 223.875 126.028 224.945 126.736C226.169 127.569 227.343 128.473 228.463 129.443C231.045 131.649 233.356 134.158 235.346 136.917C236.394 138.391 237.319 139.91 238.314 141.322C239.262 142.691 240.368 143.942 241.61 145.047C243.734 146.874 246.062 148.446 248.547 149.729C250.65 150.855 252.371 151.635 253.617 152.182L255.017 152.784C255.178 152.863 255.347 152.922 255.522 152.961C255.378 152.853 255.221 152.765 255.055 152.699L253.694 152.012C252.501 151.426 250.772 150.593 248.7 149.444C246.268 148.126 243.986 146.546 241.893 144.731C240.685 143.636 239.61 142.401 238.688 141.052C237.702 139.663 236.776 138.144 235.729 136.647C233.719 133.854 231.373 131.323 228.746 129.111C227.611 128.139 226.419 127.237 225.175 126.412C224.075 125.7 222.9 125.112 221.672 124.661C219.902 123.981 218.01 123.684 216.119 123.789C215.605 123.817 215.093 123.886 214.59 123.997C214.411 124.027 214.236 124.079 214.07 124.152Z" fill="#455A64"/>
<path d="M255.873 146.652C256.108 146.846 256.365 147.012 256.638 147.145L258.718 148.38L259.422 148.781C259.695 148.945 260 149.047 260.317 149.081C260.512 149.101 260.708 149.055 260.875 148.95C260.961 148.886 261.033 148.804 261.086 148.709C261.138 148.615 261.171 148.511 261.181 148.403C261.16 148.021 261.024 147.655 260.791 147.354C260.026 146.158 259.261 144.847 258.382 143.458L258.053 143.767C259.661 144.963 261.633 145.555 263.628 145.441C263.889 145.44 264.147 145.395 264.393 145.31C264.533 145.269 264.662 145.199 264.771 145.103C264.881 145.007 264.969 144.888 265.028 144.754C265.075 144.614 265.088 144.463 265.064 144.316C265.04 144.17 264.98 144.031 264.89 143.914C264.75 143.728 264.594 143.555 264.424 143.397C263.341 142.339 262.4 141.144 261.624 139.841C260.943 138.612 260.35 137.337 259.85 136.023C259.885 136.406 259.973 136.782 260.11 137.141C260.426 138.134 260.839 139.092 261.341 140.003C262.095 141.361 263.032 142.607 264.125 143.705C264.431 143.998 264.737 144.33 264.615 144.592C264.492 144.855 264.057 144.986 263.621 144.986C261.731 145.078 259.867 144.517 258.336 143.397L257.357 142.672L258.015 143.705L260.477 147.562C260.661 147.782 260.78 148.049 260.821 148.333C260.817 148.389 260.801 148.442 260.775 148.491C260.748 148.54 260.711 148.582 260.667 148.615C260.623 148.648 260.572 148.671 260.518 148.682C260.464 148.693 260.409 148.693 260.355 148.68C259.828 148.579 259.326 148.371 258.879 148.071L256.73 146.96C256.459 146.821 256.171 146.717 255.873 146.652Z" fill="#455A64"/>
<path d="M231.599 168.727C231.444 168.097 231.076 167.542 230.558 167.157C230.039 166.772 229.404 166.583 228.761 166.622C228.293 166.684 227.847 166.86 227.462 167.136C227.076 167.411 226.764 167.778 226.551 168.203C226.35 168.633 226.236 169.1 226.215 169.575C226.194 170.05 226.266 170.525 226.429 170.972L226.475 171.173C226.911 171.651 227.483 171.982 228.113 172.12C228.742 172.258 229.399 172.196 229.993 171.944C230.574 171.661 231.047 171.193 231.338 170.611C231.628 170.029 231.72 169.367 231.599 168.727Z" fill="#EB996E"/>
<path d="M224.945 171.219C224.945 170.895 227.071 170.995 228.677 169.236C230.283 167.478 230.153 165.179 230.452 165.179C230.589 165.179 230.842 165.711 230.819 166.676C230.775 167.933 230.293 169.135 229.457 170.07C228.658 170.976 227.537 171.53 226.337 171.612C225.442 171.628 224.93 171.365 224.945 171.219Z" fill="#263238"/>
<path d="M200.931 286.403L201.925 292.242L200.992 295.42C200.992 295.42 191.378 307.761 188.296 316.848C185.214 325.934 184.977 349.869 184.977 349.869L294.495 349.799C294.495 349.799 290.671 314.248 276.905 303.056V300.503L280.309 295.42C280.309 295.42 281.456 291.486 276.485 292.072C274.511 292.304 200.931 286.403 200.931 286.403Z" fill="black"/>
<path d="M277.517 299.639H276.752L274.527 299.585C272.599 299.539 269.808 299.5 266.351 299.524C262.894 299.547 258.787 299.624 254.221 299.716C249.656 299.809 244.639 299.901 239.362 299.817C234.401 299.749 229.446 299.429 224.517 298.86C220.491 298.392 216.501 297.658 212.571 296.662C209.922 295.996 207.314 295.172 204.762 294.194C203.852 293.862 203.172 293.538 202.697 293.345L202.17 293.106C202.047 293.052 201.986 293.021 201.994 293.013L202.185 293.067L202.728 293.268C203.21 293.438 203.898 293.739 204.816 294.039C207.382 294.946 209.994 295.719 212.64 296.353C216.566 297.304 220.549 298.005 224.563 298.451C229.09 298.984 234.1 299.277 239.369 299.377C244.639 299.477 249.648 299.377 254.214 299.308C258.78 299.238 262.894 299.176 266.351 299.2C269.808 299.223 272.607 299.292 274.534 299.392C275.498 299.431 276.248 299.485 276.752 299.524L277.334 299.57C277.456 299.616 277.525 299.632 277.517 299.639Z" fill="#B3B4B4"/>
<path d="M277.517 304.761C277.454 304.773 277.389 304.773 277.326 304.761H276.745L274.519 304.707C272.592 304.661 269.8 304.622 266.343 304.645C262.886 304.669 258.78 304.746 254.214 304.838C249.648 304.931 244.631 305.023 239.354 304.938C234.077 304.854 229.052 304.53 224.509 303.982C220.484 303.514 216.493 302.78 212.563 301.784C209.914 301.116 207.306 300.289 204.755 299.308C203.844 298.976 203.164 298.66 202.69 298.467L202.162 298.228C202.04 298.174 201.978 298.143 201.986 298.135L202.177 298.189L202.72 298.39C203.202 298.559 203.89 298.853 204.808 299.161C207.374 300.069 209.986 300.841 212.632 301.475C216.559 302.426 220.541 303.127 224.555 303.573C229.083 304.105 234.092 304.399 239.361 304.499C244.631 304.599 249.64 304.499 254.206 304.429C258.772 304.36 262.886 304.298 266.343 304.321C269.8 304.345 272.599 304.414 274.527 304.514C275.49 304.553 276.24 304.607 276.745 304.645L277.326 304.692C277.456 304.746 277.525 304.753 277.517 304.761Z" fill="#B3B4B4"/>
<path d="M205.619 310.762C205.68 310.216 205.824 309.682 206.047 309.181C206.5 307.939 207.08 306.747 207.775 305.625C208.464 304.5 209.263 303.448 210.162 302.486C210.51 302.063 210.92 301.696 211.378 301.398C211.469 301.483 209.695 303.234 208.112 305.833C206.529 308.433 205.733 310.762 205.619 310.762Z" fill="#B3B4B4"/>
<path d="M209.512 317.866C209.463 317.654 209.45 317.435 209.473 317.218C209.48 316.628 209.518 316.038 209.588 315.452C209.822 313.516 210.236 311.608 210.827 309.752C211.405 307.898 212.126 306.093 212.984 304.352C213.305 303.613 213.702 302.91 214.169 302.254C213.903 303.011 213.592 303.75 213.236 304.468C212.467 306.231 211.791 308.033 211.209 309.867C210.627 311.706 210.18 313.585 209.871 315.49C209.634 316.933 209.573 317.874 209.512 317.866Z" fill="#B3B4B4"/>
<path d="M212.104 289.936C212.218 290.286 212.293 290.649 212.326 291.016C212.505 291.876 212.746 292.721 213.045 293.546C213.726 295.49 214.636 296.917 214.575 296.978C213.711 296.039 213.072 294.912 212.708 293.685C212.39 292.839 212.182 291.955 212.089 291.054C212.001 290.686 212.007 290.302 212.104 289.936Z" fill="#B3B4B4"/>
<path d="M215.347 292.25C215.738 293.054 216.011 293.912 216.158 294.795C216.435 295.647 216.582 296.537 216.594 297.433C215.921 295.779 215.501 294.031 215.347 292.25Z" fill="#B3B4B4"/>
<path d="M234.918 291.479C235.183 294.094 235.183 296.73 234.918 299.346C234.653 296.73 234.653 294.094 234.918 291.479Z" fill="#B3B4B4"/>
<path d="M237.365 293.492C237.937 295.464 237.884 297.568 237.212 299.508C237.098 299.508 237.319 298.151 237.358 296.5C237.396 294.849 237.258 293.507 237.365 293.492Z" fill="#B3B4B4"/>
<path d="M243.981 311.703C243.699 310.591 243.484 309.463 243.338 308.325C243.059 307.208 242.855 306.074 242.727 304.931C243.243 305.972 243.582 307.093 243.728 308.247C244.009 309.376 244.094 310.545 243.981 311.703Z" fill="#B3B4B4"/>
<path d="M178.369 234.793C178.155 234.091 186.2 210.881 190.973 207.364C195.745 203.847 217.289 198.81 217.289 198.81C217.289 198.81 226.36 207.835 238.52 205.96C250.68 204.086 260.018 195.431 260.018 195.431C260.018 195.431 283.031 198.47 286.939 201.278C290.847 204.086 301.47 229.532 301.47 229.532L282.717 245.291L281.058 259.561C281.058 259.561 281.93 289.28 279.972 292.327C278.014 295.374 201.382 287.622 201.382 287.622C201.382 287.622 197.474 286.92 200.51 279.909C203.546 272.897 205.726 268.207 205.726 268.207C205.726 268.207 200.296 262.121 199.424 251.354C198.552 240.586 196.418 239.429 196.418 239.429L178.369 234.793Z" fill="#FFE393"/>
<path d="M280.958 259.013C280.844 259.013 281.999 249.325 283.536 237.415C285.073 225.506 286.396 215.818 286.503 215.856C286.61 215.895 285.44 225.537 283.911 237.485C282.381 249.433 281.065 259.028 280.958 259.013Z" fill="#263238"/>
<path d="M198.82 243.378C198.72 243.416 197.29 239.945 195.615 235.618C193.94 231.291 192.678 227.758 192.778 227.72C192.877 227.681 194.307 231.152 195.99 235.472C197.673 239.791 198.927 243.339 198.82 243.378Z" fill="#263238"/>
<g opacity="0.3">
<path d="M223.117 255.742C222.771 253.732 221.941 251.839 220.701 250.227C218.903 248.175 216.058 247.304 213.351 247.319C210.636 247.465 207.956 247.998 205.389 248.901L200.502 256.614C200.662 257.08 200.924 257.504 201.268 257.853C201.612 258.203 202.03 258.47 202.491 258.635C203.411 258.958 204.377 259.132 205.351 259.152C210.409 259.522 215.467 259.735 220.525 259.792C221.178 259.86 221.836 259.737 222.421 259.437C223.492 258.681 223.416 257.038 223.117 255.742Z" fill="black"/>
</g>
<path d="M189.719 220.376C189.881 220.63 190.015 220.902 190.116 221.186C190.354 221.711 190.675 222.482 191.057 223.446C191.822 225.367 192.847 228.074 193.879 231.029C194.912 233.983 195.768 236.744 196.342 238.742C196.632 239.729 196.862 240.539 197 241.102C197.098 241.386 197.16 241.682 197.183 241.982C197.045 241.716 196.935 241.437 196.854 241.149L196.089 238.835C195.447 236.868 194.56 234.153 193.52 231.175C192.48 228.198 191.516 225.506 190.812 223.562C190.484 222.652 190.208 221.881 189.986 221.248C189.863 220.969 189.773 220.677 189.719 220.376Z" fill="#263238"/>
<path d="M189.68 222.829L198.254 254.369C198.403 254.885 198.717 255.337 199.147 255.655C199.577 255.973 200.099 256.139 200.632 256.128H219.224C219.582 256.14 219.938 256.07 220.266 255.924C220.593 255.777 220.883 255.557 221.113 255.28C221.344 255.004 221.509 254.678 221.597 254.328C221.684 253.978 221.691 253.612 221.618 253.259L214.1 221.734C213.963 221.202 213.652 220.733 213.218 220.401C212.783 220.07 212.251 219.895 211.706 219.906H192.051C191.689 219.894 191.329 219.966 190.999 220.117C190.669 220.268 190.378 220.493 190.149 220.776C189.92 221.059 189.758 221.391 189.677 221.747C189.595 222.104 189.597 222.474 189.68 222.829Z" fill="#263238"/>
<path d="M196.135 228.722C196.135 228.722 193.917 227.658 192.166 228.722C190.415 229.787 187.577 234.492 187.577 234.492L185.826 241.974L187.027 252.14L187.501 256.853L198.82 258.149V254.377L211.783 244.604C211.783 244.604 216.333 243.331 215.982 241.966C215.63 240.601 215.049 239.652 213.764 239.899C212.479 240.146 198.59 243.756 198.59 243.756C198.59 243.756 196.372 244.226 196.487 243.632C196.602 243.038 203.026 239.984 204.074 239.274C205.122 238.564 210.032 237.392 209.427 235.155C209.354 234.752 209.192 234.37 208.952 234.039C208.712 233.708 208.4 233.437 208.041 233.244C207.682 233.052 207.284 232.944 206.878 232.929C206.472 232.914 206.067 232.992 205.695 233.157L194.483 237.276L192.617 237.747L192.854 234.8L194.835 232.093C195.012 232.149 195.199 232.169 195.384 232.152C195.569 232.134 195.749 232.079 195.912 231.99C196.076 231.9 196.22 231.779 196.335 231.632C196.451 231.486 196.537 231.317 196.587 231.136C196.744 230.732 196.785 230.291 196.705 229.864C196.625 229.437 196.428 229.041 196.135 228.722Z" fill="#FFBE9D"/>
<path d="M194.629 237.223C193.768 237.72 192.844 238.099 191.883 238.349C190.967 238.738 190.002 238.997 189.015 239.12C189.878 238.627 190.801 238.248 191.761 237.994C192.679 237.609 193.643 237.35 194.629 237.223Z" fill="#EB996E"/>
<path d="M197.183 244.018C196.379 244.465 195.517 244.795 194.621 244.998C193.763 245.328 192.861 245.531 191.944 245.599C193.605 244.827 195.371 244.307 197.183 244.057V244.018Z" fill="#EB996E"/>
<path d="M211.072 244.72C210.873 244.879 210.655 245.011 210.422 245.113C209.986 245.345 209.351 245.661 208.548 246.031C206.468 246.979 204.342 247.818 202.177 248.546C200.012 249.279 197.808 249.895 195.577 250.389C194.721 250.582 194.048 250.713 193.535 250.79C193.284 250.849 193.028 250.877 192.77 250.875C193.665 250.564 194.576 250.307 195.501 250.104C197.191 249.664 199.516 249.008 202.04 248.16C204.563 247.311 206.812 246.424 208.433 245.761C209.293 245.364 210.174 245.016 211.072 244.72Z" fill="#EB996E"/>
<path d="M190.545 250.25C190.506 250.351 189.78 249.965 189.55 249.07C189.321 248.176 189.703 247.474 189.788 247.528C189.872 247.582 189.719 248.206 189.933 248.947C190.147 249.687 190.606 250.158 190.545 250.25Z" fill="#EB996E"/>
<path d="M188.312 244.303C188.312 244.35 188.105 244.303 187.845 244.172C187.52 243.947 187.276 243.622 187.149 243.245C187.022 242.868 187.019 242.46 187.141 242.082C187.249 241.796 187.386 241.665 187.432 241.688C187.478 241.712 187.264 242.375 187.531 243.115C187.799 243.856 188.312 244.195 188.312 244.303Z" fill="#EB996E"/>
<path d="M187.019 237.022C187.025 237.147 187.012 237.272 186.981 237.392C186.927 237.678 186.858 238.017 186.782 238.441C186.591 239.413 186.323 240.755 186.017 242.344V242.298C186.514 245.877 187.195 251.06 187.937 256.876V256.923V256.977C187.791 257.37 187.631 257.786 187.478 258.211C185.809 262.969 185.031 267.999 185.183 273.044C185.226 274.571 185.351 276.096 185.558 277.61C185.627 278.111 185.68 278.52 185.726 278.844C185.758 278.988 185.771 279.136 185.765 279.284C185.713 279.146 185.675 279.004 185.65 278.859C185.589 278.582 185.489 278.173 185.397 277.633C185.138 276.118 184.972 274.587 184.9 273.051C184.662 267.961 185.41 262.873 187.103 258.072C187.256 257.648 187.417 257.223 187.562 256.83V256.93C186.797 251.107 186.185 245.923 185.772 242.329L186.682 238.472C186.789 238.056 186.874 237.701 186.942 237.439C186.957 237.298 186.983 237.159 187.019 237.022Z" fill="#EB996E"/>
<path d="M200.686 253.274C199.951 254.038 199.069 254.642 198.093 255.048C197.172 255.569 196.154 255.892 195.103 255.997C195.103 255.889 196.388 255.442 197.917 254.686C199.447 253.93 200.617 253.174 200.686 253.274Z" fill="#EB996E"/>
<path d="M270.947 269.241L284.492 269.765L281.792 253.274L282.717 245.291L300.667 230.172C300.667 230.172 306.946 266.904 307.512 271.146C308.185 276.237 307.206 282.986 304.759 285.4C302.671 287.452 287.627 285.4 281.815 285.4C278.603 285.4 270.924 285.454 270.924 285.454L268.232 272.789L270.947 269.241Z" fill="#FFBE9D"/>
<path d="M304.759 269.811C304.705 269.881 303.788 269.04 302.021 268.269C299.732 267.226 297.223 266.77 294.717 266.942C293.345 267.035 291.993 267.326 290.702 267.806C289.517 268.238 288.492 268.809 287.582 269.164C286.865 269.472 286.107 269.674 285.333 269.765C285.053 269.818 284.765 269.818 284.484 269.765C285.516 269.649 286.523 269.368 287.467 268.932C288.354 268.546 289.356 267.96 290.572 267.49C291.892 266.975 293.282 266.666 294.694 266.572C297.262 266.393 299.831 266.898 302.143 268.037C302.835 268.384 303.496 268.792 304.117 269.256C304.351 269.415 304.567 269.602 304.759 269.811Z" fill="#EB996E"/>
<path d="M266.84 349.869C266.733 349.869 266.114 338.7 265.464 324.908C264.814 311.117 264.378 299.963 264.492 299.963C264.607 299.963 265.211 311.132 265.861 324.924C266.512 338.715 266.947 349.861 266.84 349.869Z" fill="#B3B4B4"/>
<path d="M242.612 270.074C244.254 269.833 245.879 269.485 247.476 269.033C248.224 268.665 248.947 268.248 249.64 267.783L257.288 267.158L270.94 269.241C270.94 269.241 273.234 270.907 272.905 276.021C272.626 279.446 271.895 282.818 270.733 286.048C270.733 286.048 264.615 291.07 262.978 291.378C261.342 291.687 252.011 291.162 251.086 290.43C250.539 290.012 250.081 289.487 249.74 288.887C249.241 288.63 248.84 288.216 248.597 287.708C248.354 287.199 248.282 286.625 248.394 286.071C248.394 286.071 245.189 281.898 244.776 280.124C244.363 278.35 244.876 277.934 244.876 277.934C244.876 277.934 243.95 275.535 244.669 274.702C244.85 274.499 245.07 274.334 245.315 274.219C245.561 274.103 245.827 274.039 246.097 274.029C246.368 274.02 246.638 274.066 246.89 274.164C247.143 274.262 247.373 274.411 247.568 274.602C248.294 275.435 252.845 274.81 252.845 274.81L256.875 272.095C254.801 272.626 252.693 273.01 250.566 273.244C248.401 273.306 241.885 274.771 242.612 270.074Z" fill="#FFBE9D"/>
<path d="M258.435 279.908C258.435 279.97 257.602 280.117 256.302 280.572C255.652 280.795 254.879 281.089 254.007 281.343C253.049 281.667 252.05 281.849 251.04 281.883C250.005 281.916 248.983 281.648 248.095 281.112C247.394 280.663 246.771 280.1 246.252 279.446C245.905 279.014 245.586 278.561 245.296 278.088C245.09 277.756 244.99 277.564 245.013 277.548C245.036 277.533 245.556 278.227 246.466 279.26C246.987 279.867 247.599 280.387 248.279 280.803C249.116 281.283 250.07 281.518 251.032 281.482C253.097 281.428 254.856 280.633 256.225 280.279C256.935 280.027 257.683 279.902 258.435 279.908Z" fill="#EB996E"/>
<path d="M261.219 276.237C261.257 276.237 261.403 276.329 261.51 276.615C261.64 276.987 261.64 277.392 261.51 277.764C261.385 278.14 261.133 278.459 260.799 278.667C260.539 278.821 260.355 278.821 260.332 278.775C260.309 278.728 260.89 278.366 261.135 277.633C261.38 276.9 261.12 276.283 261.219 276.237Z" fill="#EB996E"/>
<path d="M260.913 285.362C260.287 285.544 259.644 285.661 258.994 285.709C257.801 285.879 256.149 286.079 254.328 286.272C253.466 286.389 252.598 286.456 251.728 286.473C251.005 286.487 250.285 286.372 249.602 286.133C248.948 285.956 248.381 285.541 248.011 284.969C248.521 285.355 249.089 285.657 249.694 285.863C250.354 286.055 251.042 286.136 251.728 286.102C252.493 286.102 253.372 285.971 254.282 285.879C256.11 285.678 257.762 285.524 258.963 285.431C259.609 285.342 260.262 285.319 260.913 285.362Z" fill="#EB996E"/>
<path d="M264.447 282.06C264.493 282.06 264.638 282.215 264.737 282.562C264.868 283.015 264.868 283.497 264.737 283.95C264.609 284.405 264.361 284.815 264.018 285.138C263.751 285.369 263.537 285.439 263.514 285.4C263.491 285.362 264.102 284.783 264.355 283.858C264.458 283.264 264.488 282.661 264.447 282.06Z" fill="#EB996E"/>
<path d="M262.252 289.566C261.66 289.741 261.048 289.834 260.432 289.843C257.473 290.081 254.497 289.894 251.591 289.288C250.979 289.204 250.382 289.035 249.816 288.787C250.428 288.806 251.038 288.881 251.636 289.01C252.753 289.18 254.298 289.373 256.011 289.481C257.724 289.589 259.284 289.589 260.416 289.566C261.027 289.507 261.641 289.507 262.252 289.566Z" fill="#EB996E"/>
<path d="M222.964 274.154C222.203 274.256 221.431 274.256 220.67 274.154C217.032 273.81 213.525 272.611 210.429 270.653C209.771 270.275 209.162 269.817 208.617 269.287C208.655 269.233 209.381 269.727 210.575 270.406C212.14 271.302 213.787 272.046 215.492 272.627C217.197 273.204 218.951 273.622 220.731 273.877C222.108 274.046 222.964 274.093 222.964 274.154Z" fill="#263238"/>
<g opacity="0.3">
<path d="M236.371 273.738C234.968 273.614 233.555 273.669 232.165 273.9C225.014 274.671 217.634 274.671 211.079 270.976C212.021 272.959 213.631 274.54 215.622 275.435C217.889 276.216 220.27 276.61 222.666 276.599C228.418 276.836 234.18 276.578 239.889 275.828C239.493 275.239 238.971 274.746 238.363 274.384C237.755 274.023 237.074 273.802 236.371 273.738Z" fill="black"/>
</g>
<path d="M214.536 199.689C214.536 196.952 213.458 194.327 211.539 192.391C209.62 190.456 207.017 189.368 204.303 189.368H142.003C139.339 189.442 136.808 190.561 134.949 192.488C133.09 194.415 132.05 196.997 132.05 199.685C132.05 202.373 133.09 204.956 134.949 206.882C136.808 208.809 139.339 209.928 142.003 210.002H179.241C182.736 213.403 188.709 217.993 188.709 217.993V209.624L205.053 209.955C210.644 209.786 214.536 205.088 214.536 199.689Z" fill="white"/>
<path d="M214.536 199.689C214.536 199.689 214.536 199.874 214.536 200.252C214.522 200.807 214.46 201.359 214.353 201.903C214.184 202.79 213.907 203.653 213.527 204.471C212.989 205.588 212.259 206.598 211.37 207.456C210.244 208.524 208.876 209.297 207.385 209.709C206.969 209.82 206.548 209.91 206.123 209.979C205.679 210.031 205.232 210.059 204.785 210.064L201.963 210.017L188.717 209.778L188.862 209.632C188.862 212.27 188.862 215.07 188.862 217.985V218.317L188.61 218.116C185.55 215.733 182.285 213.141 179.111 210.125L179.233 210.179H156.672H144.397C143.341 210.179 142.309 210.218 141.223 210.141C139.139 209.975 137.151 209.184 135.516 207.87C133.88 206.556 132.672 204.779 132.045 202.767C131.795 201.924 131.646 201.054 131.602 200.175C131.563 199.302 131.625 198.427 131.785 197.568C131.965 196.717 132.245 195.891 132.619 195.107C133.352 193.566 134.448 192.229 135.812 191.213C137.176 190.198 138.766 189.536 140.443 189.284C141.256 189.171 142.077 189.128 142.898 189.153H159.249L191.057 189.199H203.294C204.165 189.17 205.038 189.217 205.902 189.338C206.704 189.465 207.489 189.685 208.242 189.993C209.553 190.546 210.738 191.365 211.722 192.4C212.51 193.218 213.152 194.168 213.618 195.208C213.808 195.622 213.974 196.047 214.115 196.48C214.223 196.881 214.314 197.252 214.383 197.576C214.478 198.085 214.532 198.6 214.544 199.118C214.544 199.465 214.544 199.643 214.544 199.643C214.544 199.643 214.544 199.465 214.498 199.118C214.466 198.6 214.399 198.085 214.299 197.576C214.223 197.252 214.123 196.889 214.008 196.496C213.868 196.068 213.7 195.651 213.504 195.246C213.033 194.223 212.388 193.291 211.599 192.492C210.622 191.494 209.454 190.706 208.165 190.178C207.427 189.882 206.657 189.673 205.871 189.554C205.017 189.437 204.155 189.396 203.294 189.43H191.057H159.249H142.898C142.098 189.401 141.297 189.443 140.504 189.554C138.478 189.875 136.596 190.81 135.109 192.234C133.622 193.659 132.599 195.505 132.176 197.529C131.858 199.194 131.942 200.91 132.42 202.535C132.679 203.346 133.033 204.123 133.476 204.849C134.301 206.212 135.438 207.357 136.791 208.187C138.144 209.018 139.674 209.51 141.254 209.624C142.278 209.701 143.357 209.624 144.397 209.662H156.679H179.241H179.31L179.363 209.709C182.507 212.709 185.765 215.309 188.808 217.7L188.548 217.823C188.548 214.908 188.548 212.108 188.548 209.47V209.323H188.701L201.94 209.624C203.883 209.624 205.718 209.863 207.294 209.354C208.756 209.008 210.115 208.312 211.255 207.325C212.138 206.49 212.865 205.503 213.404 204.41C214.033 203.106 214.402 201.691 214.49 200.244C214.513 199.866 214.536 199.689 214.536 199.689Z" fill="#263238"/>
<path d="M201.091 202.905C200.928 202.917 200.765 202.917 200.602 202.905C199.866 202.806 199.177 202.49 198.619 201.996C198.062 201.502 197.663 200.852 197.471 200.129C197.28 199.406 197.305 198.642 197.543 197.934C197.782 197.225 198.223 196.604 198.812 196.148C199.4 195.692 200.109 195.422 200.849 195.373C201.59 195.323 202.328 195.495 202.971 195.868C203.614 196.241 204.133 196.798 204.463 197.469C204.793 198.139 204.918 198.893 204.823 199.635C204.696 200.542 204.249 201.372 203.563 201.973C202.877 202.574 202 202.905 201.091 202.905ZM201.091 196.095C200.365 196.094 199.664 196.361 199.119 196.846C198.574 197.33 198.223 197.998 198.131 198.725C198.031 199.518 198.246 200.319 198.729 200.953C199.212 201.587 199.923 202.003 200.709 202.111C201.497 202.214 202.293 201.997 202.922 201.508C203.552 201.019 203.963 200.298 204.066 199.504C204.118 199.111 204.092 198.711 203.99 198.328C203.889 197.945 203.713 197.586 203.474 197.272C203.234 196.957 202.936 196.693 202.595 196.495C202.255 196.297 201.879 196.169 201.489 196.118C201.354 196.102 201.219 196.094 201.084 196.095H201.091Z" fill="#263238"/>
<path d="M206.2 203.793C206.11 203.791 206.024 203.758 205.955 203.7L203.5 201.633C203.462 201.6 203.43 201.561 203.406 201.516C203.383 201.471 203.368 201.422 203.364 201.371C203.359 201.321 203.364 201.27 203.379 201.221C203.394 201.173 203.418 201.128 203.451 201.089C203.483 201.05 203.522 201.018 203.567 200.994C203.611 200.971 203.66 200.956 203.71 200.951C203.76 200.947 203.81 200.952 203.858 200.967C203.907 200.982 203.951 201.006 203.99 201.039L206.445 203.106C206.523 203.172 206.572 203.267 206.582 203.369C206.592 203.471 206.562 203.574 206.498 203.654C206.462 203.698 206.416 203.733 206.365 203.757C206.313 203.781 206.257 203.793 206.2 203.793Z" fill="#263238"/>
</g>
<defs>
<filter id="filter0_d_21_530" x="0" y="12.6326" width="370" height="351.367" filterUnits="userSpaceOnUse" color-interpolation-filters="sRGB">
<feFlood flood-opacity="0" result="BackgroundImageFix"/>
<feColorMatrix in="SourceAlpha" type="matrix" values="0 0 0 0 0 0 0 0 0 0 0 0 0 0 0 0 0 0 127 0" result="hardAlpha"/>
<feOffset dx="4" dy="4"/>
<feGaussianBlur stdDeviation="5"/>
<feComposite in2="hardAlpha" operator="out"/>
<feColorMatrix type="matrix" values="0 0 0 0 0 0 0 0 0 0 0 0 0 0 0 0 0 0 0.25 0"/>
<feBlend mode="normal" in2="BackgroundImageFix" result="effect1_dropShadow_21_530"/>
<feBlend mode="normal" in="SourceGraphic" in2="effect1_dropShadow_21_530" result="shape"/>
</filter>
</defs>
</svg>
