<svg width="321" height="366" viewBox="0 0 321 366" fill="none" xmlns="http://www.w3.org/2000/svg">
<path opacity="0.3" d="M43.3591 66.4507V61.897C43.3591 52.9181 38.0613 49.7377 32.6781 49.7377C31.264 49.7094 29.8597 50.0063 28.5506 50.61C27.2415 51.2138 26.0552 52.1119 25.0638 53.2495C24.0725 54.3872 23.2969 55.7406 22.7843 57.2273C22.2718 58.714 22.033 60.3028 22.0825 61.897V66.4507H20.5444V91.6528H44.7547V66.4507H43.3591ZM33.3617 80.3207V84.8904H31.0688V80.3207C30.4118 80.0206 29.8677 79.4722 29.5298 78.7694C29.192 78.0666 29.0813 77.2532 29.2168 76.4684C29.3523 75.6837 29.7256 74.9766 30.2726 74.4681C30.8196 73.9597 31.5064 73.6817 32.2152 73.6817C32.9241 73.6817 33.6108 73.9597 34.1579 74.4681C34.7049 74.9766 35.0781 75.6837 35.2137 76.4684C35.3492 77.2532 35.2385 78.0666 34.9006 78.7694C34.5627 79.4722 34.0187 80.0206 33.3617 80.3207ZM40.0053 66.4748H25.301V61.9211C25.2973 59.72 26.0684 57.6073 27.445 56.0472C28.8215 54.487 30.691 53.6071 32.6425 53.6007C36.7013 53.6007 40.0053 56.7329 40.0053 61.897V66.4748Z" stroke="black" stroke-miterlimit="10"/>
<path opacity="0.3" d="M128.757 18.9859H60.1566C54.8554 18.9859 50.558 23.8311 50.558 29.808C50.558 35.7849 54.8554 40.6301 60.1566 40.6301H128.757C134.058 40.6301 138.356 35.7849 138.356 29.808C138.356 23.8311 134.058 18.9859 128.757 18.9859Z" stroke="black" stroke-miterlimit="10"/>
<g opacity="0.3">
<path d="M68.8153 28.8L70.8162 31.2896L69.8549 32.0928L68.3596 29.1292L66.8856 32.1329L65.9243 31.3298L67.911 28.8401L64.9844 28.1173L65.3404 26.8162L68.0961 28.1816L67.7543 24.8165H68.9648L68.6444 28.1816L71.4001 26.8403L71.7561 28.1414L68.8153 28.8Z" fill="black"/>
<path d="M76.2705 28.8L78.2714 31.2896L77.2816 32.1329L75.7934 29.1694L74.3408 32.1329L73.3795 31.3298L75.3591 28.8401L72.4325 28.1173L72.7956 26.8162L75.5513 28.1816L75.2095 24.8165H76.42L76.0996 28.1816L78.8553 26.8403L79.2114 28.1414L76.2705 28.8Z" fill="black"/>
<path d="M83.6907 28.8L85.6916 31.2896L84.7303 32.0928L83.2421 29.1292L81.7966 32.1329L80.8424 31.3298L82.822 28.8401L79.8883 28.1173L80.2514 26.8162L83.0071 28.1816L82.6653 24.8165H83.8758L83.5554 28.1816L86.3111 26.8403L86.6671 28.1414L83.6907 28.8Z" fill="black"/>
<path d="M91.1742 28.8L93.1751 31.2896L92.2352 32.1329L90.7398 29.1694L89.2516 32.1329L88.2903 31.3298L90.2699 28.8401L87.3433 28.1173L87.6993 26.8162L90.455 28.1816L90.099 24.8165H91.3024L90.982 28.1816L93.7377 26.8403L94.1008 28.1414L91.1742 28.8Z" fill="black"/>
<path d="M98.6437 28.8L100.645 31.2896L99.6834 32.0928L98.188 29.1292L96.7069 32.1329L95.7385 31.3298L97.7252 28.8401L94.7986 28.1173L95.1546 26.8162L97.9103 28.1816L97.5685 24.8165H98.779L98.4586 28.1816L101.214 26.8403L101.57 28.1414L98.6437 28.8Z" fill="black"/>
<path d="M106.085 28.8L108.086 31.2896L107.118 32.0928L105.629 29.1292L104.156 32.1329L103.194 31.3298L105.174 28.8401L102.247 28.1173L102.61 26.8162L105.366 28.1816L105.053 24.8165H106.263L105.943 28.1816L108.699 26.8403L109.055 28.1414L106.085 28.8Z" fill="black"/>
<path d="M113.533 28.8L115.534 31.2896L114.573 32.0928L113.085 29.1292L111.611 32.1329L110.649 31.3298L112.629 28.8401L109.702 28.1173L110.065 26.8162L112.821 28.1816L112.479 24.8165H113.69L113.369 28.1816L116.125 26.8403L116.481 28.1414L113.533 28.8Z" fill="black"/>
<path d="M120.989 28.8L122.99 31.2896L122.028 32.0928L120.533 29.1292L119.066 32.1329L118.105 31.3298L120.084 28.8401L117.158 28.1173L117.514 26.8162L120.269 28.1816L119.935 24.8165H121.138L120.818 28.1816L123.566 26.8403L123.93 28.1414L120.989 28.8Z" fill="black"/>
</g>
<path opacity="0.3" d="M40.0478 166.608C39.8289 166.067 39.4871 165.601 39.0569 165.257C38.6267 164.912 38.1235 164.703 37.5982 164.649H35.9818V163.042C37.23 161.269 37.9011 159.066 37.8831 156.802C37.8831 152.706 35.697 149.381 32.9983 149.381C30.2995 149.381 28.1491 152.706 28.1491 156.802C28.1342 158.985 28.7517 161.115 29.9079 162.866V164.649H27.7717C27.2403 164.696 26.7292 164.899 26.2894 165.239C25.8496 165.579 25.4965 166.043 25.2652 166.584L22.3386 172.142H42.896L40.0478 166.608Z" stroke="black" stroke-miterlimit="10"/>
<path opacity="0.3" d="M46.8842 168.994C50.1229 160.176 46.4099 150.066 38.5911 146.413C30.7722 142.76 21.8084 146.948 18.5697 155.766C15.331 164.585 19.044 174.695 26.8628 178.348C34.6816 182.001 43.6455 177.813 46.8842 168.994Z" stroke="black" stroke-miterlimit="10"/>
<g opacity="0.2">
<path d="M147.3 237.532C129.22 226.198 115.335 207.938 108.16 186.057C100.984 164.176 100.992 140.12 108.182 118.245C115.371 96.3701 129.268 78.1213 147.355 66.8025C165.442 55.4837 186.525 51.8431 206.786 56.5398L204.578 64.8923L229.187 58.2826L211.813 37.5539L209.677 45.529C203 43.917 196.19 43.1094 189.361 43.1196C136.02 43.1196 92.6199 92.062 92.6199 152.224C92.6342 172.249 97.529 191.884 106.769 208.983C116.01 226.082 129.24 239.986 145.014 249.177L138.911 237.733L147.3 237.532Z" fill="black"/>
<path d="M225.079 50.7977L232.677 59.865L223.348 62.3708C243.728 72.1621 260.005 90.3902 268.831 113.305C277.657 136.22 278.361 162.078 270.799 185.561C263.236 209.044 247.981 228.364 228.173 239.548C208.366 250.731 185.511 252.927 164.311 245.684L167.316 239.54L142.03 240.094L155.097 264.517L159.312 255.908C169.018 259.496 179.169 261.32 189.383 261.313C242.724 261.313 286.124 212.37 286.124 152.2C286.101 130.352 280.273 109.014 269.391 90.9385C258.51 72.8633 243.075 58.8815 225.079 50.7977Z" fill="black"/>
</g>
<path d="M303.72 33.1208L287.413 29.6112V29.6754C286.602 31.5307 285.277 32.5587 284.045 32.2936L283.333 32.141C282.101 31.884 281.197 30.3661 281.055 28.3021V28.2378L264.748 24.7282C263.668 24.4941 262.558 24.5026 261.482 24.7531C260.405 25.0036 259.382 25.4912 258.473 26.1879C257.564 26.8847 256.785 27.777 256.182 28.8137C255.578 29.8504 255.162 31.0111 254.957 32.2294L233.795 153.268C233.557 154.68 233.826 156.141 234.543 157.33C235.26 158.518 236.366 159.336 237.618 159.605L283.625 169.507C284.245 169.641 284.882 169.636 285.499 169.492C286.117 169.348 286.704 169.069 287.225 168.669C287.747 168.269 288.194 167.757 288.54 167.162C288.887 166.568 289.125 165.902 289.243 165.203L310.392 44.1799C310.6 42.9593 310.593 41.7044 310.37 40.4872C310.147 39.2699 309.713 38.1143 309.093 37.0867C308.473 36.0591 307.679 35.1797 306.757 34.4992C305.835 33.8186 304.803 33.3502 303.72 33.1208Z" fill="#FFE393" stroke="#263238" stroke-linecap="round" stroke-linejoin="round"/>
<path d="M309.936 46.8623L310.391 44.1638C310.598 42.9444 310.589 41.6912 310.365 40.4757C310.141 39.2603 309.707 38.1067 309.087 37.0809C308.467 36.055 307.674 35.1772 306.753 34.4977C305.832 33.8182 304.801 33.3503 303.719 33.1208L287.413 29.6112V29.6754C286.601 31.5307 285.277 32.5587 284.045 32.2936L283.333 32.141C282.101 31.884 281.197 30.3661 281.054 28.3021V28.2378L264.748 24.7282C263.668 24.4941 262.558 24.5026 261.481 24.7531C260.405 25.0036 259.382 25.4912 258.473 26.1879C257.563 26.8847 256.785 27.777 256.181 28.8137C255.578 29.8504 255.162 31.0111 254.957 32.2294L254.494 34.9359L309.936 46.8623Z" fill="white" stroke="#263238" stroke-linecap="round" stroke-linejoin="round"/>
<path d="M306.361 85.6212L308.348 73.8956L307.408 73.6948L313.34 42.5737C313.753 40.1138 313.284 37.5696 312.035 35.4993C310.787 33.429 308.862 32.0018 306.682 31.5307L262.534 22.0218C260.352 21.5537 258.096 22.0818 256.26 23.4899C254.424 24.8981 253.158 27.071 252.743 29.531L230.982 154.088C230.774 155.305 230.782 156.557 231.004 157.772C231.226 158.986 231.658 160.139 232.276 161.165C232.894 162.191 233.685 163.069 234.604 163.75C235.523 164.43 236.552 164.899 237.633 165.131L281.781 174.64C282.863 174.878 283.977 174.874 285.058 174.626C286.139 174.377 287.166 173.891 288.08 173.194C288.994 172.497 289.776 171.603 290.383 170.564C290.989 169.525 291.408 168.361 291.614 167.138L303.72 95.4354L304.659 95.6442L305.834 88.6971L304.894 88.4964L305.414 85.4204L306.361 85.6212ZM290.133 159.958C289.714 162.417 288.447 164.588 286.61 165.995C284.773 167.401 282.516 167.928 280.335 167.46L241.335 159.067C239.156 158.596 237.231 157.168 235.984 155.098C234.737 153.027 234.269 150.483 234.685 148.024L254.95 32.2295C255.155 31.0112 255.571 29.8504 256.174 28.8138C256.778 27.7771 257.556 26.8848 258.466 26.188C259.375 25.4912 260.398 25.0037 261.474 24.7532C262.551 24.5027 263.661 24.4942 264.741 24.7283L281.047 28.2379V28.3022C281.204 30.3662 282.094 31.8841 283.326 32.1411L284.038 32.2937C285.263 32.5587 286.594 31.4906 287.406 29.6755V29.6113L303.72 33.1209C304.803 33.3503 305.835 33.8187 306.757 34.4993C307.679 35.1798 308.473 36.0592 309.093 37.0868C309.713 38.1144 310.147 39.27 310.37 40.4873C310.593 41.7045 310.6 42.9594 310.392 44.18L290.133 159.958Z" fill="#707070" stroke="#263238" stroke-linecap="round" stroke-linejoin="round"/>
<path d="M305.023 32.5265L263.723 23.6359C261.412 23.1395 259.021 23.6981 257.076 25.189C255.131 26.68 253.79 28.9812 253.348 31.5868L232.242 152.465C232.023 153.756 232.032 155.082 232.268 156.369C232.504 157.655 232.962 158.877 233.617 159.964C234.271 161.05 235.11 161.981 236.083 162.702C237.057 163.423 238.147 163.921 239.292 164.167L280.592 173.049C281.736 173.296 282.912 173.286 284.053 173.02C285.193 172.754 286.276 172.237 287.24 171.499C288.203 170.76 289.029 169.815 289.668 168.717C290.307 167.619 290.749 166.389 290.966 165.098L312.072 44.22C312.512 41.615 312.017 38.9195 310.695 36.7265C309.373 34.5336 307.332 33.0228 305.023 32.5265ZM290.133 159.958C289.714 162.417 288.447 164.588 286.61 165.995C284.773 167.401 282.516 167.928 280.335 167.459L241.335 159.067C239.156 158.596 237.231 157.168 235.984 155.098C234.737 153.027 234.269 150.483 234.685 148.024L254.95 32.2293C255.155 31.011 255.571 29.8503 256.174 28.8136C256.778 27.7769 257.556 26.8847 258.466 26.1879C259.375 25.4911 260.398 25.0035 261.474 24.753C262.551 24.5026 263.661 24.4941 264.741 24.7281L281.047 28.2378V28.302C281.204 30.3661 282.094 31.884 283.326 32.141L284.038 32.2936C285.263 32.5586 286.594 31.4905 287.406 29.6754V29.6111L303.72 33.1208C304.803 33.3501 305.835 33.8185 306.757 34.4991C307.679 35.1797 308.473 36.059 309.093 37.0866C309.713 38.1142 310.147 39.2699 310.37 40.4871C310.593 41.7044 310.6 42.9593 310.392 44.1798L290.133 159.958Z" fill="#263238" stroke="#263238" stroke-linecap="round" stroke-linejoin="round"/>
<path d="M284.764 29.4989C284.794 29.3274 284.777 29.1499 284.718 28.9887C284.658 28.8276 284.557 28.6902 284.427 28.5938C284.298 28.4973 284.147 28.4463 283.992 28.447C283.837 28.4478 283.686 28.5003 283.557 28.598C283.429 28.6957 283.329 28.8342 283.27 28.9959C283.212 29.1575 283.197 29.3352 283.228 29.5064C283.258 29.6777 283.334 29.8347 283.444 29.9577C283.554 30.0808 283.693 30.1642 283.846 30.1976C283.947 30.2209 284.051 30.2212 284.152 30.1986C284.253 30.1759 284.349 30.1307 284.435 30.0657C284.52 30.0006 284.594 29.917 284.65 29.8197C284.707 29.7224 284.745 29.6133 284.764 29.4989Z" fill="#707070"/>
<path d="M260.803 27.7963C260.653 28.6797 259.721 28.8083 259.607 29.4748V29.523L260.454 29.7078L260.404 30.0049L259.265 29.7238L259.308 29.4748C259.464 28.5352 260.376 28.5352 260.511 27.716C260.561 27.4188 260.511 27.2341 260.29 27.194C260.07 27.1538 259.956 27.2984 259.913 27.5554L259.87 27.8124L259.6 27.7562V27.5152C259.678 27.0735 259.906 26.8165 260.312 26.8968C260.403 26.9041 260.491 26.9359 260.57 26.9894C260.648 27.0429 260.714 27.1166 260.762 27.2045C260.81 27.2924 260.839 27.3919 260.846 27.4948C260.853 27.5977 260.838 27.7011 260.803 27.7963Z" fill="#263238"/>
<path d="M262.22 28.1176V28.1899C262.209 28.3171 262.162 28.437 262.087 28.5323C262.011 28.6276 261.911 28.6933 261.8 28.72C261.896 28.7909 261.969 28.8952 262.007 29.0169C262.046 29.1387 262.048 29.2713 262.014 29.3946L261.978 29.6195C261.9 30.0692 261.665 30.3182 261.266 30.2379C260.867 30.1576 260.732 29.8203 260.81 29.3705V29.1697L261.081 29.226L261.038 29.4508C260.995 29.7159 261.038 29.8926 261.273 29.9327C261.508 29.9729 261.601 29.8444 261.651 29.5472L261.693 29.3223C261.736 29.0412 261.693 28.8806 261.437 28.8244H261.28L261.33 28.5353H261.501C261.546 28.5445 261.592 28.5428 261.636 28.5303C261.68 28.5178 261.722 28.4949 261.757 28.463C261.793 28.431 261.822 28.3909 261.843 28.3452C261.864 28.2995 261.876 28.2493 261.878 28.198V28.0614C261.928 27.7643 261.878 27.5876 261.651 27.5474C261.423 27.5073 261.316 27.6438 261.273 27.9088V28.0534L261.003 27.9972V27.8606C261.074 27.4189 261.309 27.17 261.715 27.2503C262.121 27.3306 262.299 27.6518 262.22 28.1176Z" fill="#263238"/>
<path d="M262.747 28.4388L262.676 28.8484L262.398 28.7841L262.469 28.3826L262.747 28.4388ZM262.477 30.045L262.405 30.4546L262.128 30.3904L262.199 29.9888L262.477 30.045Z" fill="#263238"/>
<path d="M263.288 28.8323C263.337 28.7625 263.402 28.7101 263.477 28.6816C263.551 28.653 263.632 28.6496 263.708 28.6717C264.043 28.744 264.143 29.0492 264.071 29.4748L263.979 30.045C263.9 30.4948 263.665 30.7438 263.267 30.6554C262.868 30.5671 262.74 30.2458 262.811 29.7961L262.847 29.5953L263.117 29.6595L263.082 29.8764C263.032 30.1334 263.082 30.3181 263.309 30.3583C263.537 30.3984 263.644 30.2699 263.687 30.0049L263.779 29.4347C263.829 29.1777 263.779 28.993 263.551 28.9528C263.514 28.9422 263.475 28.9402 263.437 28.9471C263.399 28.954 263.362 28.9696 263.33 28.9928C263.297 29.0161 263.269 29.0467 263.247 29.0826C263.225 29.1185 263.21 29.159 263.203 29.2018V29.266L262.932 29.2098L263.274 27.6035L264.299 27.8204L264.249 28.1095L263.487 27.9489L263.288 28.8323Z" fill="#263238"/>
<path d="M265.674 28.8403V28.9206L265.403 28.8644V28.7921C265.446 28.5271 265.403 28.3504 265.161 28.3102C264.919 28.2701 264.819 28.3986 264.769 28.7118L264.656 29.3623C264.703 29.2727 264.776 29.203 264.862 29.1639C264.948 29.1247 265.043 29.1183 265.133 29.1455C265.46 29.2178 265.567 29.5149 265.496 29.9486L265.417 30.3903C265.415 30.4869 265.393 30.5815 265.353 30.6673C265.314 30.7531 265.258 30.8279 265.19 30.8863C265.122 30.9448 265.043 30.9854 264.959 31.0052C264.875 31.0249 264.789 31.0234 264.705 31.0007C264.62 30.9871 264.539 30.9523 264.467 30.899C264.395 30.8456 264.334 30.775 264.289 30.692C264.244 30.6091 264.216 30.5161 264.207 30.4195C264.197 30.3229 264.207 30.2252 264.235 30.1333L264.492 28.6475C264.57 28.1817 264.805 27.9328 265.204 28.0211C265.285 28.0335 265.363 28.0657 265.433 28.1153C265.502 28.165 265.561 28.231 265.606 28.3088C265.651 28.3866 265.68 28.4744 265.691 28.5662C265.703 28.6579 265.697 28.7514 265.674 28.8403ZM264.599 29.7237L264.52 30.1574C264.478 30.4225 264.52 30.5991 264.755 30.6473C264.99 30.6955 265.09 30.559 265.14 30.294L265.211 29.8522C265.254 29.5952 265.211 29.4105 264.976 29.3704C264.741 29.3302 264.641 29.4748 264.599 29.7237Z" fill="#263238"/>
<path d="M293.935 35.0645L293.201 34.9063L292.852 36.9653L293.587 37.1235L293.935 35.0645Z" fill="#263238"/>
<path d="M294.988 34.8456L294.254 34.6876L293.835 37.1647L294.569 37.3227L294.988 34.8456Z" fill="#263238"/>
<path d="M296.011 34.7527L295.276 34.5947L294.808 37.3637L295.542 37.5217L296.011 34.7527Z" fill="#263238"/>
<path d="M297.083 34.4605L296.348 34.3025L295.793 37.5843L296.528 37.7424L297.083 34.4605Z" fill="#263238"/>
<path d="M305.578 39.6344L301.192 38.6947L301.697 35.6669L306.091 36.6146L305.578 39.6344ZM301.476 38.4698L305.379 39.273L305.799 36.7913L301.897 35.9882L301.476 38.4698Z" fill="#263238"/>
<path d="M304.536 36.8507L302.22 36.3525L301.903 38.2301L304.218 38.7282L304.536 36.8507Z" fill="#263238"/>
<path d="M305.408 38.6799L304.857 38.5594L304.735 39.2677L305.286 39.3883L305.408 38.6799Z" fill="#263238"/>
<path d="M299.689 37.6908C299.66 37.6828 299.633 37.6662 299.611 37.6426C299.424 37.4143 299.179 37.2581 298.909 37.1961C298.639 37.1341 298.359 37.1695 298.108 37.2972C298.09 37.3103 298.069 37.3189 298.047 37.3227C298.026 37.3265 298.004 37.3254 297.982 37.3194C297.961 37.3134 297.941 37.3027 297.924 37.2878C297.906 37.273 297.891 37.2543 297.88 37.233C297.869 37.212 297.861 37.1886 297.858 37.1642C297.855 37.1398 297.856 37.1149 297.861 37.0909C297.866 37.067 297.876 37.0444 297.889 37.0247C297.902 37.005 297.919 36.9884 297.937 36.976C298.248 36.8028 298.6 36.7467 298.941 36.8161C299.282 36.8855 299.594 37.0767 299.832 37.3615C299.847 37.3787 299.86 37.3993 299.868 37.4221C299.877 37.4448 299.881 37.4693 299.881 37.494C299.881 37.5187 299.877 37.5432 299.868 37.5659C299.86 37.5887 299.847 37.6093 299.832 37.6265C299.814 37.649 299.792 37.6665 299.767 37.6777C299.742 37.6888 299.716 37.6933 299.689 37.6908Z" fill="#263238"/>
<path d="M300.159 37.1367C300.134 37.1442 300.107 37.1442 300.081 37.1367C299.814 36.8148 299.465 36.5947 299.082 36.5069C298.7 36.4191 298.302 36.468 297.945 36.6468C297.926 36.6595 297.905 36.6679 297.884 36.6715C297.862 36.6751 297.84 36.6739 297.819 36.6679C297.798 36.662 297.778 36.6514 297.761 36.6367C297.743 36.6221 297.728 36.6037 297.717 36.5826C297.706 36.5615 297.698 36.5381 297.695 36.5138C297.692 36.4894 297.693 36.4646 297.698 36.4408C297.704 36.4169 297.713 36.3945 297.726 36.3747C297.739 36.3549 297.755 36.3382 297.774 36.3256C298.195 36.1 298.669 36.0298 299.128 36.125C299.587 36.2201 300.008 36.4758 300.33 36.8556C300.346 36.8729 300.359 36.8935 300.367 36.9162C300.376 36.939 300.38 36.9634 300.38 36.9882C300.38 37.0129 300.376 37.0373 300.367 37.0601C300.359 37.0829 300.346 37.1035 300.33 37.1207C300.306 37.1418 300.277 37.1546 300.247 37.1574C300.217 37.1603 300.186 37.1531 300.159 37.1367Z" fill="#263238"/>
<path d="M300.551 36.4859C300.52 36.4764 300.491 36.46 300.465 36.4377C300.123 36.0164 299.67 35.7298 299.173 35.62C298.676 35.5102 298.16 35.5828 297.702 35.8273C297.663 35.8508 297.618 35.8564 297.576 35.8429C297.533 35.8294 297.497 35.7979 297.475 35.755C297.463 35.734 297.455 35.7107 297.452 35.6863C297.449 35.6618 297.45 35.6369 297.455 35.613C297.46 35.589 297.47 35.5665 297.483 35.5468C297.496 35.527 297.513 35.5105 297.531 35.498C298.052 35.2203 298.637 35.1344 299.203 35.2526C299.769 35.3708 300.288 35.6871 300.686 36.1566C300.702 36.1738 300.714 36.1944 300.723 36.2172C300.731 36.2399 300.736 36.2644 300.736 36.2891C300.736 36.3138 300.731 36.3383 300.723 36.3611C300.714 36.3838 300.702 36.4044 300.686 36.4216C300.67 36.444 300.649 36.4615 300.625 36.4727C300.602 36.4839 300.576 36.4885 300.551 36.4859Z" fill="#263238"/>
<path d="M299.141 37.8917C299.132 37.9525 299.111 38.0107 299.082 38.0627C299.052 38.1148 299.014 38.1596 298.969 38.1948C298.924 38.2299 298.873 38.2546 298.819 38.2673C298.766 38.2801 298.711 38.2807 298.657 38.2692C298.547 38.2457 298.45 38.1742 298.388 38.0703C298.325 37.9663 298.301 37.8385 298.322 37.715C298.343 37.5915 298.406 37.4823 298.498 37.4115C298.591 37.3407 298.704 37.3141 298.813 37.3375C298.867 37.349 298.919 37.3726 298.965 37.4068C299.011 37.441 299.05 37.4853 299.081 37.5369C299.111 37.5885 299.132 37.6465 299.142 37.7074C299.153 37.7683 299.152 37.831 299.141 37.8917Z" fill="#263238"/>
<path d="M295.522 80.2613L256.884 71.9482C254.821 71.5044 252.83 73.0307 252.436 75.3573L246.249 111.939C245.856 114.265 247.209 116.511 249.272 116.955L287.91 125.268C289.972 125.712 291.964 124.186 292.357 121.859L298.544 85.2777C298.938 82.951 297.585 80.7051 295.522 80.2613Z" fill="white" stroke="#263238" stroke-miterlimit="10"/>
<path d="M264.015 66.4988L263.516 62.2101L264.164 62.3466L264.506 65.6234L265.93 62.7241L266.521 62.8446L264.627 66.6675L264.25 68.9242L263.63 68.7957L264.015 66.4988Z" fill="#263238"/>
<path d="M266.521 64.427C266.535 64.2192 266.588 64.017 266.676 63.8338C266.764 63.6506 266.885 63.4904 267.032 63.3638C267.179 63.2372 267.347 63.1471 267.527 63.0993C267.707 63.0514 267.894 63.047 268.075 63.0864C268.257 63.1257 268.429 63.2079 268.58 63.3275C268.731 63.447 268.858 63.6014 268.953 63.7803C269.048 63.9592 269.108 64.1587 269.129 64.3657C269.151 64.5726 269.133 64.7824 269.078 64.9811L268.529 68.1936C268.515 68.4014 268.463 68.6035 268.375 68.7867C268.287 68.97 268.166 69.1301 268.019 69.2567C267.872 69.3833 267.703 69.4735 267.523 69.5213C267.344 69.5691 267.157 69.5735 266.975 69.5342C266.794 69.4949 266.622 69.4127 266.471 69.2931C266.32 69.1735 266.192 69.0192 266.098 68.8403C266.003 68.6613 265.943 68.4619 265.921 68.2549C265.9 68.048 265.918 67.8382 265.973 67.6395L266.521 64.427ZM266.578 67.8483C266.479 68.4265 266.642 68.804 267.084 68.9004C267.525 68.9967 267.796 68.7076 267.903 68.0972L268.465 64.7723C268.558 64.2021 268.408 63.8166 267.96 63.7202C267.511 63.6238 267.248 63.921 267.141 64.5233L266.578 67.8483Z" fill="#263238"/>
<path d="M269.704 68.5225C269.612 69.0927 269.747 69.4702 270.203 69.5746C270.658 69.679 270.915 69.3658 271.007 68.7715L271.819 63.9527L272.403 64.0812L271.591 68.8518C271.428 69.8075 270.929 70.3617 270.075 70.1689C269.22 69.9762 268.935 69.2694 269.099 68.3137L269.904 63.5432L270.516 63.6716L269.704 68.5225Z" fill="#263238"/>
<path d="M274.261 64.515C274.438 64.5251 274.61 64.5821 274.763 64.6812C274.916 64.7802 275.047 64.9187 275.144 65.0853C275.241 65.2519 275.302 65.442 275.322 65.6401C275.342 65.8382 275.32 66.0388 275.258 66.2256L275.172 66.7396C275.051 67.4303 274.767 67.8158 274.261 67.8801C274.481 68.0206 274.65 68.2446 274.737 68.5123C274.825 68.7799 274.825 69.0739 274.738 69.3418L274.574 70.3216C274.514 70.585 274.514 70.8613 274.574 71.1247L273.948 70.9962C273.89 70.7324 273.89 70.4569 273.948 70.1931L274.112 69.2052C274.233 68.4905 273.976 68.2013 273.456 68.0889L273.022 68.0006L272.566 70.683L271.94 70.5545L273.008 64.258L274.261 64.515ZM273.599 67.4705C274.09 67.5749 274.418 67.4705 274.532 66.7718L274.631 66.1694C274.731 65.6072 274.631 65.2699 274.133 65.1655L273.528 65.037L273.136 67.3661L273.599 67.4705Z" fill="#263238"/>
<path d="M279.595 67.2458L279.502 67.808L278.911 67.6795L279.011 67.0772C279.111 66.515 278.968 66.1295 278.512 66.0331C278.057 65.9367 277.8 66.2339 277.708 66.8362L277.145 70.1612C277.046 70.7314 277.195 71.1169 277.644 71.2133C278.092 71.3096 278.356 71.0125 278.448 70.4101L278.591 69.607L279.182 69.7275L279.046 70.5306C278.883 71.4783 278.384 72.0244 277.523 71.8397C276.661 71.655 276.376 70.9402 276.54 69.9845L277.088 66.772C277.245 65.8243 277.75 65.2782 278.605 65.4629C278.78 65.4933 278.947 65.5658 279.095 65.6755C279.243 65.7852 279.368 65.9296 279.462 66.0988C279.556 66.268 279.616 66.458 279.639 66.656C279.662 66.8539 279.647 67.0551 279.595 67.2458Z" fill="#263238"/>
<path d="M280.114 67.3502C280.133 67.1462 280.188 66.9487 280.278 66.7702C280.368 66.5918 280.489 66.4363 280.635 66.3138C280.781 66.1912 280.948 66.1043 281.125 66.0584C281.302 66.0126 281.486 66.0088 281.665 66.0474C281.843 66.086 282.013 66.1661 282.162 66.2827C282.312 66.3992 282.438 66.5496 282.534 66.7242C282.629 66.8989 282.691 67.094 282.716 67.2972C282.741 67.5004 282.728 67.7072 282.678 67.9044L282.122 71.1169C282.1 71.3154 282.041 71.5066 281.95 71.6787C281.86 71.8507 281.739 72.0001 281.595 72.1176C281.451 72.2351 281.288 72.3182 281.115 72.3619C280.941 72.4056 280.762 72.4089 280.588 72.3717C280.413 72.3344 280.247 72.2574 280.1 72.1453C279.953 72.0331 279.828 71.8883 279.733 71.7197C279.637 71.5511 279.573 71.3622 279.544 71.1646C279.516 70.9671 279.523 70.765 279.566 70.5708L280.114 67.3502ZM280.171 70.7796C280.079 71.3498 280.235 71.7273 280.684 71.8237C281.133 71.92 281.396 71.6389 281.496 71.0205L282.058 67.6956C282.158 67.1254 282.008 66.7399 281.553 66.6435C281.097 66.5471 280.841 66.8443 280.734 67.4466L280.171 70.7796Z" fill="#263238"/>
<path d="M284.828 66.7961C285.011 66.8186 285.187 66.8879 285.343 66.9986C285.498 67.1094 285.63 67.2587 285.727 67.4352C285.823 67.6118 285.883 67.8109 285.901 68.0175C285.92 68.224 285.896 68.4325 285.832 68.6272L285.298 71.8397C285.134 72.7954 284.636 73.3094 283.767 73.1167L282.457 72.8356L283.525 66.5471L284.828 66.7961ZM283.867 72.418C284.316 72.5143 284.579 72.2413 284.679 71.663L285.227 68.4505C285.32 67.8723 285.163 67.5109 284.707 67.4145L284.038 67.2699L283.19 72.2895L283.867 72.418Z" fill="#263238"/>
<path d="M288.196 70.4099L288.09 71.0364L286.722 70.7392L286.345 72.9799L288.018 73.3413L287.912 73.9758L285.619 73.4859L286.68 67.1894L288.98 67.6873L288.866 68.3218L287.192 67.9604L286.829 70.1128L288.196 70.4099Z" fill="#263238"/>
<path d="M259.728 91.9899C259.934 91.7112 260.206 91.5033 260.512 91.3897C260.818 91.2762 261.146 91.2615 261.458 91.3474C262.811 91.6366 263.224 92.8894 262.932 94.5599L262.541 96.881C262.235 98.696 261.266 99.716 259.657 99.3707C258.048 99.0253 257.521 97.6761 257.805 95.861L257.941 95.0579L259.037 95.2908L258.888 96.1742C258.71 97.2424 258.988 97.9732 259.828 98.1499C260.668 98.3266 261.174 97.7724 261.352 96.7043L261.743 94.3993C261.928 93.3312 261.644 92.6003 260.803 92.4236C260.651 92.3774 260.491 92.3673 260.335 92.394C260.179 92.4206 260.029 92.4834 259.895 92.5785C259.761 92.6735 259.646 92.7987 259.558 92.9462C259.469 93.0937 259.408 93.2603 259.379 93.4356L259.329 93.7086L258.233 93.4757L259.657 86.9383L263.808 87.8298L263.609 89.0184L260.511 88.3518L259.728 91.9899Z" fill="#263238"/>
<path d="M269.426 92.0219V92.2468L268.33 92.0059L268.38 91.7007C268.565 90.6325 268.28 89.9258 267.418 89.741C266.557 89.5563 265.994 90.1105 265.816 91.3473L265.368 94.0137C265.555 93.647 265.844 93.3597 266.19 93.1958C266.536 93.0319 266.92 93.0004 267.283 93.1061C268.636 93.3953 269.049 94.624 268.757 96.3186L268.458 98.1176C268.152 99.9327 267.148 100.945 265.546 100.599C263.943 100.254 263.324 98.8886 263.63 97.0736L264.656 91.018C264.969 89.1387 265.923 88.1268 267.589 88.4882C269.255 88.8496 269.733 90.2069 269.426 92.0219ZM265.054 95.6922L264.755 97.4671C264.57 98.5353 264.855 99.2661 265.709 99.4508C266.564 99.6356 267.069 99.0734 267.247 98.0052L267.547 96.2223C267.732 95.1541 267.433 94.4233 266.592 94.2466C265.752 94.0699 265.268 94.624 265.054 95.6922Z" fill="#263238"/>
<path d="M275.28 93.2828L275.244 93.5077L274.14 93.2668L274.197 92.9616C274.375 91.8934 274.091 91.1867 273.236 91.0019C272.382 90.8172 271.847 91.3714 271.634 92.6082L271.178 95.2665C271.368 94.9032 271.658 94.6192 272.003 94.4571C272.348 94.2949 272.731 94.2633 273.094 94.367C274.447 94.6562 274.867 95.8849 274.575 97.5795L274.269 99.3705C273.962 101.186 272.965 102.206 271.356 101.86C269.747 101.515 269.135 100.15 269.441 98.3345L270.466 92.3673C270.787 90.4879 271.734 89.476 273.407 89.8374C275.08 90.1988 275.586 91.4678 275.28 93.2828ZM270.9 96.9451L270.601 98.728C270.423 99.7962 270.701 100.527 271.563 100.712C272.424 100.896 272.916 100.334 273.101 99.2661L273.4 97.4832C273.578 96.415 273.286 95.6842 272.439 95.4994C271.591 95.3147 271.086 95.8769 270.9 96.9451Z" fill="#263238"/>
<path d="M281.125 94.5599L280.1 100.615C279.78 102.495 278.833 103.523 277.145 103.161C275.457 102.8 274.966 101.475 275.272 99.6678L275.315 99.4429L276.412 99.6758L276.355 99.989C276.177 101.057 276.476 101.772 277.316 101.949C278.156 102.125 278.74 101.587 278.932 100.342L279.381 97.684C279.192 98.0457 278.903 98.3277 278.558 98.4871C278.214 98.6466 277.833 98.6748 277.473 98.5675C276.12 98.2784 275.7 97.0656 275.991 95.355L276.298 93.5399C276.604 91.7249 277.587 90.721 279.21 91.0663C280.834 91.4117 281.432 92.7448 281.125 94.5599ZM277.465 93.7006L277.166 95.4835C276.988 96.5516 277.28 97.2825 278.128 97.4672C278.975 97.6519 279.481 97.0897 279.659 96.0216L279.965 94.2386C280.15 93.1544 279.865 92.4396 279.004 92.2549C278.142 92.0702 277.651 92.6163 277.465 93.7006Z" fill="#263238"/>
<path d="M287.086 95.7887L287.021 96.1662C286.822 97.3709 286.309 98.166 285.405 98.3507C286.217 98.9209 286.388 99.9569 286.188 101.113L286.039 101.997C285.726 103.828 284.693 104.784 283.055 104.406C281.418 104.029 280.762 102.736 281.076 100.905L281.225 100.021C281.425 98.8165 281.937 97.9893 282.87 97.7724C282.073 97.2183 281.859 96.2786 282.065 95.0739L282.122 94.6965C282.436 92.8653 283.475 91.9498 285.106 92.2871C286.737 92.6244 287.399 93.9737 287.086 95.7887ZM283.276 94.9856L283.183 95.5558C282.984 96.7123 283.397 97.3307 284.223 97.5074C285.049 97.6841 285.647 97.2825 285.825 96.126L285.918 95.5799C286.124 94.3592 285.726 93.6926 284.892 93.5159C284.059 93.3392 283.483 93.7809 283.276 95.0097V94.9856ZM282.407 100.118L282.236 101.121C282.03 102.342 282.414 103.025 283.255 103.202C284.095 103.378 284.679 102.912 284.885 101.692L285.056 100.688C285.248 99.5393 284.892 98.8808 284.024 98.696C283.155 98.5113 282.607 98.9932 282.407 100.142V100.118Z" fill="#263238"/>
<path d="M249.154 127.312L285.512 135.134" stroke="#263238" stroke-miterlimit="10"/>
<path d="M247.801 135.31L284.152 143.133" stroke="#263238" stroke-miterlimit="10"/>
<path d="M308.106 97.1702L316.9 95.6442" stroke="#263238" stroke-miterlimit="10"/>
<path d="M306.753 108.615L311.488 110.141" stroke="#263238" stroke-miterlimit="10"/>
<path d="M304.047 118.533L312.841 125.4" stroke="#263238" stroke-miterlimit="10"/>
<path d="M223.804 116.22C224.261 116.22 224.7 116.016 225.023 115.651C225.346 115.287 225.527 114.792 225.527 114.277V98.2143C225.527 97.6989 225.346 97.2045 225.023 96.84C224.7 96.4755 224.261 96.2708 223.804 96.2708H223.733V89.9903C223.732 88.9719 223.553 87.9637 223.207 87.0232C222.86 86.0828 222.352 85.2287 221.713 84.5097C221.073 83.7906 220.314 83.2208 219.48 82.8328C218.645 82.4447 217.75 82.2461 216.847 82.2482H66.6009C64.7785 82.2482 63.0307 83.0648 61.7421 84.5182C60.4535 85.9716 59.7295 87.9429 59.7295 89.9984V207.07C59.7314 209.124 60.4562 211.093 61.7446 212.545C63.0331 213.997 64.7798 214.812 66.6009 214.812H216.847C218.668 214.812 220.415 213.997 221.704 212.545C222.992 211.093 223.717 209.124 223.719 207.07V165.066H223.79C224.247 165.066 224.685 164.862 225.008 164.497C225.332 164.133 225.513 163.638 225.513 163.123V147.06C225.513 146.545 225.332 146.051 225.008 145.686C224.685 145.322 224.247 145.117 223.79 145.117H223.719V143.085H223.79C224.247 143.085 224.685 142.88 225.008 142.516C225.332 142.151 225.513 141.657 225.513 141.141V125.079C225.513 124.563 225.332 124.069 225.008 123.705C224.685 123.34 224.247 123.135 223.79 123.135H223.719V116.22H223.804Z" fill="#263238"/>
<path d="M217.609 87.412H65.8745V209.648H217.609V87.412Z" fill="#FFE393" stroke="#263238" stroke-miterlimit="10"/>
<path d="M184.42 103.129H99.5625V179.996H184.42V103.129Z" fill="#E3E3E3" stroke="#263238" stroke-miterlimit="10"/>
<path d="M131.492 158.697V159.179H130.452V160.89H131.727V161.372H129.975V156.553H131.727V157.035H130.452V158.681L131.492 158.697Z" fill="#B2B2B2"/>
<path d="M132.588 161.372H132.161V156.553H132.759L133.749 160.022V156.553H134.169V161.372H133.678L132.588 157.484V161.372Z" fill="#B2B2B2"/>
<path d="M135.273 161.372V157.051H134.482V156.569H136.526V157.051H135.743V161.372H135.273Z" fill="#B2B2B2"/>
<path d="M138.363 158.697V159.179H137.324V160.89H138.598V161.372H136.846V156.553H138.598V157.035H137.324V158.681L138.363 158.697Z" fill="#B2B2B2"/>
<path d="M139.986 156.569C140.656 156.569 140.941 156.946 140.941 157.661V158.055C140.941 158.585 140.777 158.914 140.406 159.043C140.798 159.179 140.948 159.532 140.948 160.046V160.793C140.93 160.991 140.959 161.191 141.033 161.372H140.549C140.481 161.189 140.454 160.99 140.471 160.793V160.038C140.471 159.492 140.243 159.324 139.851 159.324H139.516V161.372H139.039V156.553L139.986 156.569ZM139.865 158.834C140.243 158.834 140.471 158.697 140.471 158.175V157.709C140.471 157.284 140.328 157.051 139.979 157.051H139.516V158.834H139.865Z" fill="#B2B2B2"/>
<path d="M144.266 157.726V158.16H143.81V157.702C143.81 157.268 143.661 157.003 143.312 157.003C142.963 157.003 142.813 157.268 142.813 157.702V160.24C142.813 160.673 142.97 160.938 143.312 160.938C143.654 160.938 143.81 160.673 143.81 160.24V159.613H144.266V160.216C144.266 160.938 143.96 161.42 143.298 161.42C142.635 161.42 142.344 160.938 142.344 160.216V157.726C142.344 156.995 142.65 156.521 143.298 156.521C143.946 156.521 144.266 156.995 144.266 157.726Z" fill="#B2B2B2"/>
<path d="M144.658 157.726C144.658 156.995 144.978 156.521 145.633 156.521C145.772 156.511 145.911 156.536 146.041 156.594C146.17 156.653 146.286 156.743 146.38 156.858C146.474 156.974 146.544 157.112 146.585 157.262C146.626 157.412 146.637 157.57 146.616 157.726V160.215C146.637 160.371 146.628 160.53 146.588 160.68C146.548 160.831 146.479 160.97 146.385 161.087C146.292 161.204 146.177 161.296 146.048 161.356C145.919 161.417 145.78 161.444 145.641 161.436C144.986 161.436 144.665 160.954 144.665 160.231L144.658 157.726ZM145.128 160.239C145.128 160.681 145.292 160.938 145.633 160.938C145.975 160.938 146.139 160.681 146.139 160.239V157.702C146.139 157.268 145.982 157.003 145.633 157.003C145.285 157.003 145.128 157.268 145.128 157.702V160.239Z" fill="#B2B2B2"/>
<path d="M148.061 156.569C148.723 156.569 149.03 157.019 149.03 157.758V160.167C149.03 160.906 148.723 161.356 148.061 161.356H147.064V156.537L148.061 156.569ZM148.061 160.89C148.403 160.89 148.567 160.649 148.567 160.207V157.734C148.567 157.292 148.403 157.051 148.054 157.051H147.548V160.89H148.061Z" fill="#B2B2B2"/>
<path d="M150.988 158.697V159.179H149.949V160.89H151.23V161.372H149.471V156.553H151.23V157.035H149.949V158.681L150.988 158.697Z" fill="#B2B2B2"/>
<path d="M177.719 128.516H106.114V137.632H177.719V128.516Z" fill="white" stroke="#263238" stroke-miterlimit="10"/>
<path d="M177.719 142.972H106.114V152.088H177.719V142.972Z" fill="white" stroke="#263238" stroke-miterlimit="10"/>
<path d="M152.035 163.532H145.277V172.648H152.035V163.532Z" fill="white" stroke="#263238" stroke-miterlimit="10"/>
<path d="M143.426 163.532H136.668V172.648H143.426V163.532Z" fill="white" stroke="#263238" stroke-miterlimit="10"/>
<path d="M134.824 163.532H128.067V172.648H134.824V163.532Z" fill="white" stroke="#263238" stroke-miterlimit="10"/>
<path d="M126.222 163.532H119.771V172.648H126.222V163.532Z" fill="white" stroke="#263238" stroke-miterlimit="10"/>
<path d="M160.886 163.532H153.879V172.648H160.886V163.532Z" fill="white" stroke="#263238" stroke-miterlimit="10"/>
<path d="M145.405 113.562V111.811C145.359 110.48 144.857 109.22 144.006 108.297C143.154 107.374 142.019 106.858 140.837 106.858C139.656 106.858 138.521 107.374 137.669 108.297C136.818 109.22 136.316 110.48 136.27 111.811V113.562H136.184V123.247H145.491V113.562H145.405ZM141.133 118.886V120.637H140.229V118.87C139.976 118.755 139.767 118.544 139.637 118.273C139.507 118.003 139.465 117.69 139.517 117.389C139.569 117.087 139.713 116.815 139.923 116.619C140.133 116.424 140.398 116.317 140.67 116.317C140.943 116.317 141.207 116.424 141.417 116.619C141.628 116.815 141.771 117.087 141.823 117.389C141.875 117.69 141.833 118.003 141.703 118.273C141.573 118.544 141.364 118.755 141.112 118.87L141.133 118.886ZM143.689 113.562H138.028V111.811C138.107 111.026 138.438 110.301 138.961 109.774C139.483 109.248 140.158 108.957 140.859 108.957C141.559 108.957 142.235 109.248 142.757 109.774C143.279 110.301 143.611 111.026 143.689 111.811V113.562Z" fill="#263238"/>
<path d="M130.83 134.186C130.83 134.62 130.979 134.877 131.328 134.877C131.677 134.877 131.819 134.62 131.819 134.186V130.508H132.268V134.13C132.268 134.861 131.969 135.35 131.307 135.35C130.644 135.35 130.36 134.861 130.36 134.13V130.484H130.83V134.186Z" fill="#B2B2B2"/>
<path d="M134.582 131.664V131.793H134.126V131.632C134.126 131.206 133.984 130.949 133.642 130.949C133.3 130.949 133.158 131.206 133.158 131.632C133.158 132.708 134.582 132.813 134.582 134.162C134.582 134.893 134.269 135.367 133.614 135.367C132.958 135.367 132.659 134.893 132.659 134.162V133.889H133.108V134.194C133.108 134.62 133.265 134.877 133.606 134.877C133.948 134.877 134.105 134.62 134.105 134.194C134.105 133.118 132.681 133.013 132.681 131.664C132.681 130.917 132.98 130.459 133.621 130.459C134.262 130.459 134.582 130.917 134.582 131.664Z" fill="#B2B2B2"/>
<path d="M136.519 132.636V133.118H135.472V134.829H136.754V135.319H135.002V130.5H136.754V130.99H135.472V132.596L136.519 132.636Z" fill="#B2B2B2"/>
<path d="M138.142 130.508C138.812 130.508 139.089 130.893 139.089 131.608V132.002C139.089 132.532 138.926 132.861 138.563 132.989C138.954 133.118 139.097 133.479 139.097 133.993V134.74C139.084 134.938 139.113 135.136 139.182 135.319H138.705C138.634 135.134 138.605 134.933 138.619 134.732V133.977C138.619 133.431 138.399 133.263 138 133.263H137.665V135.319H137.188V130.5L138.142 130.508ZM138.021 132.773C138.399 132.773 138.619 132.636 138.619 132.114V131.656C138.619 131.223 138.484 130.998 138.128 130.998H137.665V132.773H138.021Z" fill="#B2B2B2"/>
<path d="M140.955 135.319H140.528V130.5H141.133L142.116 133.977V130.5H142.536V135.319H142.08L140.991 131.431L140.955 135.319Z" fill="#B2B2B2"/>
<path d="M143.504 134.347L143.34 135.319H142.899L143.718 130.5H144.43L145.242 135.319H144.772L144.601 134.347H143.504ZM143.568 133.889H144.515L144.038 131.11L143.568 133.889Z" fill="#B2B2B2"/>
<path d="M147.165 135.311H146.709L145.997 131.488V135.319H145.584V130.5H146.246L146.958 134.339L147.634 130.5H148.297V135.319H147.848V131.447L147.165 135.311Z" fill="#B2B2B2"/>
<path d="M150.29 132.636V133.118H149.25V134.829H150.532V135.319H148.781V130.5H150.532V130.99H149.25V132.596L150.29 132.636Z" fill="#B2B2B2"/>
<path d="M131.477 147.076L132.125 147.879L131.812 148.136L131.335 147.181L130.858 148.136L130.552 147.879L131.185 147.076L130.245 146.851L130.359 146.434L131.249 146.875L131.143 145.791H131.527L131.427 146.875L132.317 146.442L132.431 146.859L131.477 147.076Z" fill="#B2B2B2"/>
<path d="M133.884 147.076L134.532 147.879L134.219 148.136L133.742 147.181L133.264 148.136L132.951 147.879L133.592 147.076L132.652 146.851L132.766 146.434L133.656 146.875L133.542 145.791H133.934L133.827 146.875L134.717 146.442L134.838 146.859L133.884 147.076Z" fill="#B2B2B2"/>
<path d="M136.291 147.076L136.939 147.879L136.626 148.136L136.142 147.181L135.672 148.136L135.358 147.879L135.999 147.076L135.052 146.851L135.173 146.434L136.056 146.875L135.949 145.791H136.341L136.234 146.875L137.124 146.442L137.238 146.859L136.291 147.076Z" fill="#B2B2B2"/>
<path d="M138.698 147.076L139.339 147.879L139.033 148.136L138.548 147.181L138.071 148.136L137.765 147.879L138.406 147.076L137.459 146.851L137.573 146.434L138.463 146.875L138.356 145.791H138.741L138.641 146.875L139.531 146.442L139.645 146.859L138.698 147.076Z" fill="#B2B2B2"/>
<path d="M141.098 147.076L141.746 147.879L141.432 148.136L140.955 147.181L140.478 148.136L140.172 147.879L140.806 147.076L139.866 146.851L139.98 146.434L140.87 146.875L140.756 145.791H141.147L141.048 146.875L141.938 146.442L142.052 146.859L141.098 147.076Z" fill="#B2B2B2"/>
<path d="M143.504 147.076L144.152 147.879L143.839 148.136L143.362 147.181L142.885 148.136L142.571 147.879L143.212 147.076L142.265 146.851L142.386 146.434L143.276 146.875L143.162 145.791H143.554L143.447 146.875L144.337 146.442L144.458 146.859L143.504 147.076Z" fill="#B2B2B2"/>
<path d="M145.911 147.076L146.559 147.879L146.246 148.136L145.762 147.181L145.292 148.136L144.978 147.879L145.619 147.076L144.672 146.851L144.786 146.434L145.676 146.875L145.569 145.791H145.961L145.854 146.875L146.744 146.442L146.858 146.859L145.911 147.076Z" fill="#B2B2B2"/>
<path d="M148.318 147.076L148.959 147.879L148.653 148.136L148.168 147.181L147.691 148.136L147.385 147.879L148.026 147.076L147.079 146.851L147.193 146.434L148.083 146.875L147.976 145.791H148.361L148.261 146.875L149.151 146.442L149.265 146.859L148.318 147.076Z" fill="#B2B2B2"/>
<path d="M149.172 366C174.329 366 194.723 344.386 194.723 317.724C194.723 291.062 174.329 269.448 149.172 269.448C124.015 269.448 103.621 291.062 103.621 317.724C103.621 344.386 124.015 366 149.172 366Z" fill="#263238"/>
<path d="M148.211 363.486C173.368 363.486 193.762 341.872 193.762 315.21C193.762 288.548 173.368 266.935 148.211 266.935C123.054 266.935 102.66 288.548 102.66 315.21C102.66 341.872 123.054 363.486 148.211 363.486Z" fill="white" stroke="#263238" stroke-miterlimit="10"/>
<path d="M148.211 356.885C169.923 356.885 187.524 338.226 187.524 315.21C187.524 292.194 169.923 273.536 148.211 273.536C126.499 273.536 108.898 292.194 108.898 315.21C108.898 338.226 126.499 356.885 148.211 356.885Z" fill="white" stroke="#263238" stroke-miterlimit="10"/>
<path d="M159.106 287.157C143.326 287.157 130.53 305.284 130.53 327.651C130.53 342.107 135.864 354.732 143.874 361.904C145.199 362.033 146.538 362.105 147.89 362.105C164.482 362.105 178.944 352.532 186.67 338.316C187.331 334.821 187.661 331.257 187.652 327.683C187.652 305.284 174.885 287.157 159.106 287.157Z" fill="#263238"/>
<path d="M130.865 309.388H112.259V314.407H130.865V309.388Z" fill="white" stroke="#263238" stroke-miterlimit="10"/>
<path d="M154.776 341.706C170.452 341.706 183.159 328.24 183.159 311.629C183.159 295.017 170.452 281.551 154.776 281.551C139.101 281.551 126.393 295.017 126.393 311.629C126.393 328.24 139.101 341.706 154.776 341.706Z" fill="white" stroke="#263238" stroke-miterlimit="10"/>
<path d="M154.776 336.742C167.86 336.742 178.467 325.498 178.467 311.629C178.467 297.759 167.86 286.515 154.776 286.515C141.693 286.515 131.086 297.759 131.086 311.629C131.086 325.498 141.693 336.742 154.776 336.742Z" fill="#263238" stroke="#263238" stroke-miterlimit="10"/>
<path d="M144.85 288.595C144.699 288.175 144.523 287.767 144.323 287.374C141.902 282.628 142.187 276.596 144.017 270.99" stroke="#263238" stroke-miterlimit="10"/>
<path d="M145.227 298.578C145.227 298.578 146.495 293.149 144.85 288.595" stroke="white" stroke-miterlimit="10"/>
<path d="M153.679 287.374C151.266 282.628 151.543 276.596 153.38 270.99" stroke="#263238" stroke-miterlimit="10"/>
<path d="M154.584 298.578C154.584 298.578 156.094 292.112 153.68 287.374" stroke="white" stroke-miterlimit="10"/>
<path d="M163.342 288.009C163.25 287.792 163.15 287.583 163.043 287.374C160.629 282.628 160.907 276.596 162.737 270.99" stroke="#263238" stroke-miterlimit="10"/>
<path d="M163.948 298.578C163.948 298.578 165.329 292.675 163.342 288.008" stroke="white" stroke-miterlimit="10"/>
<path d="M253.974 266.838C253.974 266.838 253.262 266.887 251.902 267.047C250.649 262.228 246.875 247.981 244.397 240.616C241.392 231.669 237.276 219.02 234.556 213.776C231.836 208.531 232.093 205.447 226.894 200.516C221.696 195.585 217.047 197.737 217.047 197.737C217.047 197.737 216.228 194.035 211.03 192.188C205.831 190.341 198.725 194.035 198.725 194.035C198.725 194.035 197.628 191.875 192.43 192.493C190.899 192.705 189.441 193.354 188.194 194.38C186.948 195.407 185.955 196.775 185.31 198.356C185.31 198.356 174.629 174.262 170.541 172.439C166.454 170.616 162.331 175.218 163.976 179.539C165.621 183.859 177.926 207.921 179.563 213.471C181.201 219.02 184.761 228.28 184.761 228.28C184.761 228.28 172.998 218.715 169.445 217.792C165.892 216.868 160.693 216.249 157.681 219.952C154.669 223.654 161.783 224.578 167.529 230.441C173.276 236.304 182.575 249.868 186.947 258.51C191.32 267.152 200.626 268.694 204.749 273.625C207.633 277.102 211.742 281.945 213.921 284.515C213.183 285.357 212.496 286.253 211.863 287.198L220.885 312.183C220.885 312.183 222.8 308.794 230.462 302.007C238.124 295.221 261.914 286.892 261.914 286.892L253.974 266.838Z" fill="#263238" stroke="#263238" stroke-miterlimit="10"/>
<path d="M215.074 279.817C215.074 279.817 208.509 272.107 204.393 267.176C200.277 262.244 190.992 260.694 186.591 252.053C182.191 243.411 172.913 229.846 167.173 223.984C161.434 218.121 154.321 217.197 157.325 213.495C160.33 209.792 165.578 210.427 169.139 211.334C172.699 212.242 184.455 221.823 184.455 221.823C184.455 221.823 180.895 212.571 179.257 207.022C177.619 201.472 165.294 177.402 163.656 173.082C162.018 168.761 166.112 164.135 170.214 165.99C174.315 167.845 184.989 191.899 184.989 191.899C185.633 190.317 186.625 188.948 187.872 187.923C189.119 186.898 190.578 186.251 192.11 186.044C197.308 185.426 198.405 187.586 198.405 187.586C198.405 187.586 205.525 183.884 210.709 185.731C215.893 187.578 216.726 191.288 216.726 191.288C216.726 191.288 221.376 189.128 226.574 194.059C231.772 198.99 231.494 202.09 234.229 207.327C236.963 212.563 241.072 225.22 244.077 234.167C247.082 243.114 252.009 262.236 252.009 262.236L216.712 283.832L215.074 279.817Z" fill="white" stroke="#263238" stroke-miterlimit="10"/>
<path d="M184.99 191.899L194.56 207.945" stroke="#263238" stroke-miterlimit="10"/>
<path d="M198.39 187.586L207.142 203.006" stroke="#263238" stroke-miterlimit="10"/>
<path d="M216.712 191.288L222.729 203.319" stroke="#263238" stroke-miterlimit="10"/>
<path d="M188.656 235.621L189.91 239.717" stroke="#263238" stroke-miterlimit="10"/>
<path d="M184.441 221.823L187.788 232.778" stroke="#263238" stroke-miterlimit="10"/>
<path d="M199.758 211.647L201.944 215.037" stroke="#263238" stroke-miterlimit="10"/>
<path d="M209.876 208.25L212.34 211.953" stroke="#263238" stroke-miterlimit="10"/>
<path d="M223.277 206.403L224.915 212.266" stroke="#263238" stroke-miterlimit="10"/>
<path d="M211.514 280.748C211.514 280.748 217.808 270.878 230.661 265.939C238.087 263.02 245.806 261.156 253.64 260.389L261.572 280.467C261.572 280.467 237.775 288.763 230.113 295.558C222.451 302.352 220.543 305.741 220.543 305.741L211.514 280.748Z" fill="white" stroke="#263238" stroke-miterlimit="10"/>
<path d="M233.125 347.376C233.125 347.376 222.729 318.07 219.995 311.902C217.26 305.734 221.64 302.65 221.64 302.65C221.64 302.65 227.927 293.084 244.34 285.68C260.753 278.275 262.142 277.97 266.215 283.214C270.288 288.458 297.233 347.464 297.233 347.464" fill="white"/>
<path d="M233.125 347.376C233.125 347.376 222.729 318.07 219.995 311.902C217.26 305.734 221.64 302.65 221.64 302.65C221.64 302.65 227.927 293.084 244.34 285.68C260.753 278.275 262.142 277.97 266.215 283.214C270.288 288.458 297.233 347.464 297.233 347.464" stroke="#263238" stroke-miterlimit="10"/>
<path d="M62.3853 316.544C65.2085 310.514 69.5955 305.6 74.9604 302.457C83.8114 297.365 89.5649 295.172 98.0385 285.744C106.512 276.315 120.476 267.898 126.229 266.742C131.983 265.585 133.898 262.782 131.42 259.602C128.942 256.422 122.163 256.237 116.146 258.534C110.129 260.831 104.547 263.642 104.547 263.642C107.602 256.863 109.631 248.696 112.636 241.893C114.772 237.074 118.268 229.091 120.348 224.224C121.701 221.052 125.731 215.767 123.908 212.298C122.085 208.829 117.791 211.133 115.605 214.442C112.13 219.711 95.1333 248.615 95.1333 248.615L104.825 225.485C109.731 213.768 112.066 208.178 111.376 209.84C112.8 206.419 115.591 201.809 113.889 197.898C113.504 196.982 112.908 196.2 112.163 195.633C111.418 195.066 110.552 194.735 109.655 194.675C108.758 194.614 107.863 194.826 107.063 195.288C106.264 195.751 105.589 196.447 105.109 197.304C102.745 201.641 84.6801 240.199 84.6801 240.199C84.6801 240.199 95.9878 207.11 97.4333 203.303C99.1992 198.661 98.1453 194.605 95.5534 194.629C91.7652 194.629 89.9779 199.392 88.4968 202.604L89.3228 201.247C85.7625 206.572 83.4055 213.559 80.4433 219.333C77.0017 226.09 73.4318 232.759 69.7338 239.339C70.4459 232.521 72.8883 226.128 75.8932 220.209C77.709 216.643 85.264 207.881 83.9681 203.576C82.8572 199.866 74.5759 206.837 69.7267 214.442C67.1063 218.586 60.2206 229.894 58.3336 237.845C56.4466 245.796 43.1808 272.886 39.6418 280.411C36.1029 287.936 31.8518 301.292 31.8518 301.292L62.3853 316.544Z" fill="#263238" stroke="#263238" stroke-miterlimit="10"/>
<path d="M72.4896 309.267C72.4896 309.267 65.668 299.855 52.5517 295.823C44.9813 293.429 37.1767 292.104 29.3169 291.88L22.5095 312.423C22.5095 312.423 46.7198 319.089 54.7306 325.33C62.7414 331.57 64.842 334.823 64.842 334.823L72.4896 309.267Z" fill="#263238" stroke="#263238" stroke-miterlimit="10"/>
<path d="M61.4886 312.978C64.3118 306.953 68.6959 302.042 74.0566 298.899C82.9076 293.799 88.6682 291.606 97.1347 282.186C105.601 272.765 119.572 264.34 125.333 263.176C131.093 262.011 133.002 259.224 130.516 256.036C128.031 252.848 121.26 252.679 115.243 254.976C109.226 257.273 103.629 260.076 103.629 260.076C106.684 253.297 108.713 245.138 111.718 238.327C113.854 233.508 117.357 225.533 119.43 220.658C120.782 217.486 124.813 212.202 122.99 208.74C121.167 205.279 116.88 207.568 114.694 210.884C111.219 216.153 94.2223 245.049 94.2223 245.049C97.4456 237.339 100.674 229.632 103.906 221.927C108.813 210.21 111.155 204.62 110.457 206.274C111.882 202.861 114.68 198.283 112.978 194.34C112.592 193.424 111.996 192.642 111.251 192.074C110.506 191.507 109.64 191.175 108.742 191.114C107.845 191.052 106.95 191.263 106.149 191.725C105.349 192.186 104.673 192.881 104.191 193.738C101.827 198.083 83.7621 236.641 83.7621 236.641C83.7621 236.641 95.0697 203.544 96.5152 199.745C98.2811 195.095 97.2273 191.047 94.6353 191.071C90.8471 191.071 89.0598 195.826 87.5787 199.046L88.4047 197.689C84.8444 203.006 82.4874 210.001 79.5252 215.775C76.0693 222.522 72.49 229.188 68.7873 235.773C69.4993 228.955 71.9417 222.57 74.9467 216.651C76.7624 213.085 84.3175 204.323 83.0286 200.01C81.9178 196.308 73.6293 203.271 68.7873 210.884C66.1597 215.029 59.2812 226.329 57.3942 234.287C55.5072 242.246 42.2414 269.32 38.7024 276.853C35.1634 284.386 30.9124 297.734 30.9124 297.734L61.4886 312.978Z" fill="white" stroke="#263238" stroke-miterlimit="10"/>
<path d="M83.8048 236.649L80.5364 244.094" stroke="#263238" stroke-miterlimit="10"/>
<path d="M94.265 245.057L91.7158 248.784" stroke="#263238" stroke-miterlimit="10"/>
<path d="M103.643 260.076L100.367 265.457" stroke="#263238" stroke-miterlimit="10"/>
<path d="M86.7095 256.542L86.446 259.746" stroke="#263238" stroke-miterlimit="10"/>
<path d="M78.5493 250.703L78.5664 253.795" stroke="#263238" stroke-miterlimit="10"/>
<path d="M66.5439 244.254L67.2062 249.515" stroke="#263238" stroke-miterlimit="10"/>
<path d="M71.5852 305.71C71.5852 305.71 64.7636 296.297 51.6473 292.265C44.0835 289.876 36.2862 288.554 28.4339 288.33L21.6123 308.89C21.6123 308.89 45.8226 315.548 53.8334 321.788C61.8441 328.028 63.9447 331.289 63.9447 331.289L71.5852 305.71Z" fill="white" stroke="#263238" stroke-miterlimit="10"/>
<path d="M60.7336 350.17C60.7336 350.17 62.4355 343.745 64.828 337.393C67.2206 331.04 62.6918 328.269 62.6918 328.269C62.6918 328.269 55.8844 319.162 39.101 312.913C22.3176 306.665 20.9362 306.448 17.1266 311.966C13.317 317.483 1.09082 350.668 1.09082 350.668" fill="white"/>
<path d="M60.7336 350.17C60.7336 350.17 62.4355 343.745 64.828 337.393C67.2206 331.04 62.6918 328.269 62.6918 328.269C62.6918 328.269 55.8844 319.162 39.101 312.913C22.3176 306.665 20.9362 306.448 17.1266 311.966C13.317 317.483 1.09082 350.668 1.09082 350.668" stroke="#263238" stroke-miterlimit="10"/>
</svg>
