<svg width="18" height="21" viewBox="0 0 18 21" fill="none" xmlns="http://www.w3.org/2000/svg">
<path d="M2 9.39184H6C7.1 9.39184 8 8.39764 8 7.18251V2.76384C8 1.5487 7.1 0.554504 6 0.554504H2C0.9 0.554504 0 1.5487 0 2.76384V7.18251C0 8.39764 0.9 9.39184 2 9.39184ZM2 2.76384H6V7.18251H2V2.76384ZM2 20.4385H6C7.1 20.4385 8 19.4443 8 18.2292V13.8105C8 12.5954 7.1 11.6012 6 11.6012H2C0.9 11.6012 0 12.5954 0 13.8105V18.2292C0 19.4443 0.9 20.4385 2 20.4385ZM2 13.8105H6V18.2292H2V13.8105ZM10 2.76384V7.18251C10 8.39764 10.9 9.39184 12 9.39184H16C17.1 9.39184 18 8.39764 18 7.18251V2.76384C18 1.5487 17.1 0.554504 16 0.554504H12C10.9 0.554504 10 1.5487 10 2.76384ZM16 7.18251H12V2.76384H16V7.18251ZM18 19.8862V18.7815C18 18.4722 17.78 18.2292 17.5 18.2292H16.5C16.22 18.2292 16 18.4722 16 18.7815V19.8862C16 20.1955 16.22 20.4385 16.5 20.4385H17.5C17.78 20.4385 18 20.1955 18 19.8862ZM10 12.1535V13.2582C10 13.5675 10.22 13.8105 10.5 13.8105H11.5C11.78 13.8105 12 13.5675 12 13.2582V12.1535C12 11.8442 11.78 11.6012 11.5 11.6012H10.5C10.22 11.6012 10 11.8442 10 12.1535ZM13.5 13.8105H12.5C12.22 13.8105 12 14.0535 12 14.3628V15.4675C12 15.7768 12.22 16.0198 12.5 16.0198H13.5C13.78 16.0198 14 15.7768 14 15.4675V14.3628C14 14.0535 13.78 13.8105 13.5 13.8105ZM10 16.5722V17.6768C10 17.9862 10.22 18.2292 10.5 18.2292H11.5C11.78 18.2292 12 17.9862 12 17.6768V16.5722C12 16.2629 11.78 16.0198 11.5 16.0198H10.5C10.22 16.0198 10 16.2629 10 16.5722ZM12.5 20.4385H13.5C13.78 20.4385 14 20.1955 14 19.8862V18.7815C14 18.4722 13.78 18.2292 13.5 18.2292H12.5C12.22 18.2292 12 18.4722 12 18.7815V19.8862C12 20.1955 12.22 20.4385 12.5 20.4385ZM14.5 18.2292H15.5C15.78 18.2292 16 17.9862 16 17.6768V16.5722C16 16.2629 15.78 16.0198 15.5 16.0198H14.5C14.22 16.0198 14 16.2629 14 16.5722V17.6768C14 17.9862 14.22 18.2292 14.5 18.2292ZM15.5 11.6012H14.5C14.22 11.6012 14 11.8442 14 12.1535V13.2582C14 13.5675 14.22 13.8105 14.5 13.8105H15.5C15.78 13.8105 16 13.5675 16 13.2582V12.1535C16 11.8442 15.78 11.6012 15.5 11.6012ZM16.5 16.0198H17.5C17.78 16.0198 18 15.7768 18 15.4675V14.3628C18 14.0535 17.78 13.8105 17.5 13.8105H16.5C16.22 13.8105 16 14.0535 16 14.3628V15.4675C16 15.7768 16.22 16.0198 16.5 16.0198Z" fill="#B2B2B2"/>
</svg>
