<svg width="232" height="192" viewBox="0 0 232 192" fill="none" xmlns="http://www.w3.org/2000/svg">
<path d="M152 144H242V175H152V144Z" fill="#3E3E3E"/>
<path d="M93.4388 24.0655H110.732V192H93.4388V24.0655Z" fill="#EAEAEA"/>
<path d="M89.9799 142.991C89.0044 141.805 91.6295 139.278 93.1016 138.585L95.8509 133.962L114.173 130.034C118.909 129.233 120.984 130.311 123.166 131.883L144.752 144.793V174.251C133.879 180.245 126.11 181.986 99.7708 180.245C82.7255 179.12 82.5658 173.959 82.5658 173.959C92.9952 169.799 92.4276 145.98 89.9799 143.006V142.991Z" fill="#FBBC90"/>
<path d="M144.734 174.159V148.676C112.506 148.676 81.076 173.173 82.5481 173.866C82.5481 173.866 82.7078 179.012 99.7531 180.152C126.093 181.893 133.861 180.152 144.734 174.159Z" fill="#FBBC90"/>
<path d="M99.292 133.208L114.156 130.018C118.891 129.217 122.155 159.368 122.155 159.368C122.155 159.368 118.253 159.245 116.39 170.107C114.723 179.844 97.8198 178.411 85.1733 176.809C93.5274 165.916 99.292 133.208 99.292 133.208Z" fill="#E79A6E"/>
<path d="M111.477 160.092C114.404 160.092 116.781 158.028 116.781 155.486C116.781 152.944 114.404 150.879 111.477 150.879H83.3108C80.3842 150.879 78.0074 152.944 78.0074 155.486C78.0074 158.028 80.3842 160.092 83.3108 160.092H111.477Z" fill="#FBBC90"/>
<path d="M106.387 155.686C106.387 157.597 108.001 159.168 110.005 159.168H113.818C114.28 159.168 114.634 157.612 114.634 155.686C114.634 153.76 114.262 152.22 113.818 152.22H110.005C108.018 152.22 106.387 153.776 106.387 155.686Z" fill="#FFD9C0"/>
<path d="M111.814 159.676C112.542 159.676 113.286 159.646 113.89 159.646C113.109 160.046 112.222 160.277 111.247 160.277H83.6301C82.6368 160.277 81.7145 160.031 80.9163 159.63L111.797 159.676H111.814Z" fill="#E79A6E"/>
<path d="M111.264 169.275C114.191 169.275 116.568 167.21 116.568 164.668C116.568 162.126 114.191 160.062 111.264 160.062H85.2619C82.3352 160.062 79.9585 162.126 79.9585 164.668C79.9585 167.21 82.3352 169.275 85.2619 169.275H111.264Z" fill="#FBBC90"/>
<path d="M106.156 164.869C106.156 166.779 107.77 168.351 109.774 168.351H113.588C114.049 168.351 114.404 166.794 114.404 164.869C114.404 162.943 114.031 161.402 113.588 161.402H109.774C107.788 161.402 106.156 162.958 106.156 164.869Z" fill="#FFD9C0"/>
<path d="M111.584 168.859C112.311 168.859 113.499 168.859 113.499 168.859C112.683 169.306 112.045 169.475 111.016 169.475H85.5989C84.6056 169.475 83.6833 169.229 82.8851 168.828L111.566 168.874L111.584 168.859Z" fill="#E79A6E"/>
<path d="M106.617 177.117C109.047 177.117 111.016 175.407 111.016 173.296C111.016 171.185 109.047 169.475 106.617 169.475H86.8937C84.4637 169.475 82.4949 171.185 82.4949 173.296C82.4949 175.407 84.4637 177.117 86.8937 177.117H106.617Z" fill="#FBBC90"/>
<path d="M102.573 173.296C102.573 174.883 103.921 176.177 105.571 176.177H108.746C109.118 176.177 109.438 174.883 109.438 173.296C109.438 171.709 109.136 170.415 108.746 170.415H105.571C103.921 170.415 102.573 171.709 102.573 173.296Z" fill="#FFD9C0"/>
<path d="M107.291 176.686C107.823 176.686 108.586 176.686 108.905 176.686C108.302 177.009 107.593 177.194 106.848 177.194H88.0998C87.3194 177.194 86.5922 176.994 85.9714 176.655L107.291 176.686Z" fill="#E79A6E"/>
<path d="M108.905 150.895C111.832 150.895 114.209 148.83 114.209 146.288C114.209 143.746 111.832 141.681 108.905 141.681H84.3218C81.3952 141.681 79.0184 143.746 79.0184 146.288C79.0184 148.83 81.3952 150.895 84.3218 150.895H108.905Z" fill="#FBBC90"/>
<path d="M108.551 150.479C110.395 150.479 110.378 150.402 111.389 150.355C110.644 150.71 109.579 151.095 108.675 151.095H84.6588C83.6655 151.095 82.7432 150.848 81.945 150.448L108.551 150.494V150.479Z" fill="#E79A6E"/>
<path d="M103.797 146.488C103.797 148.399 105.411 149.97 107.415 149.97H111.229C111.69 149.97 112.045 148.414 112.045 146.488C112.045 144.562 111.672 143.022 111.229 143.022H107.415C105.429 143.022 103.797 144.578 103.797 146.488Z" fill="#FFD9C0"/>
<path d="M83.9671 147.274C84.7298 145.733 86.8937 141.897 86.8937 141.897H99.9127C96.8797 144.901 93.9885 148.029 91.1506 151.095C88.3482 151.095 86.539 151.095 86.5035 151.095C84.2154 150.463 82.9029 149.462 83.9671 147.289V147.274Z" fill="#E79A6E"/>
<path d="M144.238 164.668V144.455L144.752 144.763V166.132C124.177 166.132 117.313 156.272 115.025 149.138C117.774 156.087 125.046 164.668 144.238 164.668Z" fill="#E79A6E"/>
<path d="M123.432 131.79L145.018 144.701V166.07C112.79 166.07 114.156 141.866 114.156 141.866L105.464 141.835C96.0283 145.286 94.8045 154.315 86.0956 150.818C84.5702 150.201 83.8075 149.046 84.4992 147.721C84.4992 147.721 89.4656 137.691 90.7604 134.579C91.8779 131.898 114.422 129.957 114.422 129.957C119.157 129.156 121.233 130.234 123.414 131.806L123.432 131.79Z" fill="#FBBC90"/>
<path d="M144.539 165.069V144.408L145.018 144.701V166.07C126.713 166.07 119.264 158.259 116.231 151.511C119.548 157.997 127.139 165.053 144.539 165.053V165.069Z" fill="#E79A6E"/>
<path d="M104.986 140.834C104.986 140.834 113.659 141.234 113.694 141.866L105.482 141.835C96.0461 145.286 94.8222 154.315 86.1133 150.818C94.4497 151.511 95.5672 144.285 105.003 140.834H104.986Z" fill="#E79A6E"/>
<path d="M84.3573 147.69L87.0179 142.39C87.5323 143.391 87.5323 144.593 86.8583 145.625L84.4105 149.739C84.0203 149.154 83.9671 148.429 84.3573 147.705V147.69Z" fill="#FFD9C0"/>
<path d="M154.454 174.698C155.164 175.931 156.884 176.424 158.303 175.823C159.722 175.207 160.29 173.712 159.598 172.48C158.888 171.247 157.168 170.754 155.749 171.355C154.33 171.971 153.762 173.466 154.454 174.698Z" fill="#303030"/>
<path d="M154.88 174.513C155.465 175.546 156.902 175.961 158.09 175.453C159.279 174.945 159.758 173.697 159.172 172.664C158.587 171.632 157.15 171.216 155.962 171.725C154.773 172.233 154.295 173.481 154.88 174.513Z" fill="#212121"/>
<path d="M160.538 173.928C160.751 175.284 162.205 176.239 163.784 176.039C165.345 175.854 166.444 174.59 166.214 173.219C165.983 171.848 164.547 170.908 162.968 171.108C161.389 171.309 160.307 172.557 160.538 173.928Z" fill="#303030"/>
<path d="M160.999 173.882C161.176 175.022 162.4 175.807 163.695 175.653C165.008 175.499 165.912 174.436 165.735 173.312C165.558 172.171 164.334 171.386 163.039 171.54C161.726 171.694 160.822 172.757 160.999 173.882Z" fill="#212121"/>
<path d="M167.296 174.821C168.076 176.008 169.832 176.424 171.216 175.746C172.599 175.068 173.06 173.543 172.28 172.341C171.5 171.155 169.744 170.739 168.36 171.416C166.977 172.094 166.515 173.62 167.296 174.821Z" fill="#303030"/>
<path d="M167.704 174.621C168.36 175.623 169.815 175.961 170.967 175.391C172.12 174.821 172.511 173.558 171.854 172.557C171.198 171.555 169.744 171.216 168.591 171.786C167.438 172.356 167.048 173.62 167.704 174.621Z" fill="#212121"/>
<path d="M110.732 124.949L93.4388 127.43V24.0655H110.732V124.949Z" fill="#C6C6C6"/>
<path d="M86.8938 177.117H94.3966C96.0107 177.348 97.8376 177.548 99.8951 177.687C125.614 179.397 134.429 177.918 144.734 172.634V174.174C133.862 180.168 126.093 181.909 99.7532 180.168C91.3636 179.613 87.0712 178.088 84.8718 176.67C85.4749 176.948 86.1666 177.117 86.8938 177.117Z" fill="#E79A6E"/>
<path d="M93.4388 180.091V177.102H106.617C108.515 177.102 110.112 176.054 110.732 174.59V182.509L93.4388 180.075V180.091Z" fill="#C6C6C6"/>
</svg>
