<svg width="26" height="26" viewBox="0 0 26 26" fill="none" xmlns="http://www.w3.org/2000/svg">
<path d="M26 6.5L13 0L0 6.5V19.5L13 26L26 19.5V6.5ZM13 2.977L21.5367 7.241L17.1889 9.412C16.1344 8.424 14.6467 7.8 13 7.8C11.3533 7.8 9.86556 8.424 8.81111 9.412L4.46333 7.241L13 2.977ZM11.5556 22.308L2.88889 17.979V9.438L7.41 11.7C7.28 12.103 7.22222 12.545 7.22222 13C7.22222 15.418 9.05667 17.459 11.5556 18.031V22.308ZM10.1111 13C10.1111 11.57 11.4111 10.4 13 10.4C14.5889 10.4 15.8889 11.57 15.8889 13C15.8889 14.43 14.5889 15.6 13 15.6C11.4111 15.6 10.1111 14.43 10.1111 13ZM14.4444 22.308V18.044C16.9433 17.472 18.7778 15.431 18.7778 13.013C18.7778 12.558 18.72 12.116 18.59 11.7L23.1111 9.438V17.979L14.4444 22.308Z" fill="#363939"/>
</svg>
